<svg width="193" height="173" viewBox="0 0 193 173" fill="none" xmlns="http://www.w3.org/2000/svg">
<path d="M2.40576 8.85551C1.98976 8.85551 1.59976 8.75584 1.23576 8.55651C0.871756 8.34851 0.581423 8.07118 0.364756 7.72451C0.156756 7.36918 0.0527559 6.97918 0.0527559 6.55451C0.0527559 6.15584 0.152423 5.77884 0.351756 5.42351C0.559756 5.06818 0.841423 4.78218 1.19676 4.56551C1.56076 4.34884 1.96376 4.24051 2.40576 4.24051C2.82176 4.24051 3.20742 4.34451 3.56276 4.55251C3.92676 4.75184 4.21709 5.02918 4.43376 5.38451C4.65042 5.73118 4.75876 6.12118 4.75876 6.55451C4.75876 6.97051 4.65042 7.35618 4.43376 7.71151C4.22576 8.05818 3.93976 8.33551 3.57576 8.54351C3.22042 8.75151 2.83042 8.85551 2.40576 8.85551ZM10.2997 0.834511H13.3807C14.8454 0.834511 15.9764 1.23318 16.7737 2.03051C17.5797 2.81918 17.9827 3.94584 17.9827 5.41051C17.9827 6.87518 17.5797 8.00618 16.7737 8.80351C15.9764 9.60085 14.8454 9.99951 13.3807 9.99951H10.2997V0.834511ZM13.3157 9.08951C15.6904 9.08951 16.8777 7.86318 16.8777 5.41051C16.8777 2.96651 15.6904 1.74451 13.3157 1.74451H11.3657V9.08951H13.3157ZM19.7541 3.66851H20.8071V9.99951H19.7541V3.66851ZM20.9241 0.925512V2.10851H19.6501V0.925512H20.9241ZM24.9205 10.0905C23.8545 10.0905 23.0095 9.81751 22.3855 9.27151L22.7365 8.49151C23.0745 8.76018 23.4169 8.95518 23.7635 9.07651C24.1189 9.18918 24.5175 9.24551 24.9595 9.24551C25.4275 9.24551 25.7829 9.16751 26.0255 9.01151C26.2769 8.84684 26.4025 8.61284 26.4025 8.30951C26.4025 8.05818 26.3202 7.85884 26.1555 7.71151C25.9909 7.56418 25.7179 7.44718 25.3365 7.36051L24.2705 7.11351C23.7332 6.99218 23.3215 6.78418 23.0355 6.48951C22.7495 6.19484 22.6065 5.83084 22.6065 5.39751C22.6065 4.83418 22.8275 4.37918 23.2695 4.03251C23.7115 3.68584 24.3009 3.51251 25.0375 3.51251C25.4795 3.51251 25.8999 3.58618 26.2985 3.73351C26.6972 3.87218 27.0309 4.07584 27.2995 4.34451L26.9485 5.11151C26.3679 4.61751 25.7309 4.37051 25.0375 4.37051C24.5955 4.37051 24.2489 4.45718 23.9975 4.63051C23.7549 4.79518 23.6335 5.02918 23.6335 5.33251C23.6335 5.58384 23.7072 5.78751 23.8545 5.94351C24.0105 6.09084 24.2575 6.20351 24.5955 6.28151L25.6745 6.54151C26.2639 6.68018 26.7015 6.89251 26.9875 7.17851C27.2735 7.45584 27.4165 7.81985 27.4165 8.27051C27.4165 8.82518 27.1912 9.26718 26.7405 9.59651C26.2985 9.92585 25.6919 10.0905 24.9205 10.0905ZM36.0676 3.51251C37.4716 3.51251 38.1736 4.34884 38.1736 6.02151V9.99951H37.1206V6.07351C37.1206 5.49284 37.0166 5.06818 36.8086 4.79951C36.6093 4.53084 36.2843 4.39651 35.8336 4.39651C35.305 4.39651 34.889 4.57418 34.5856 4.92951C34.2823 5.28484 34.1306 5.77018 34.1306 6.38551V9.99951H33.0776V6.07351C33.0776 5.48418 32.9736 5.05951 32.7656 4.79951C32.5576 4.53084 32.2283 4.39651 31.7776 4.39651C31.249 4.39651 30.833 4.57418 30.5296 4.92951C30.2263 5.28484 30.0746 5.77018 30.0746 6.38551V9.99951H29.0216V3.66851H30.0616V4.66951C30.2523 4.29684 30.5166 4.01084 30.8546 3.81151C31.1926 3.61218 31.5826 3.51251 32.0246 3.51251C33.004 3.51251 33.6496 3.92851 33.9616 4.76051C34.1436 4.37051 34.421 4.06718 34.7936 3.85051C35.1663 3.62518 35.591 3.51251 36.0676 3.51251ZM42.6659 3.51251C43.4719 3.51251 44.0699 3.72051 44.4599 4.13651C44.8586 4.54384 45.0579 5.16784 45.0579 6.00851V9.99951H44.0309V8.92051C43.8663 9.29318 43.6149 9.58351 43.2769 9.79151C42.9389 9.99085 42.5489 10.0905 42.1069 10.0905C41.6996 10.0905 41.3226 10.0082 40.9759 9.84351C40.6379 9.67885 40.3693 9.44918 40.1699 9.15451C39.9706 8.85984 39.8709 8.53484 39.8709 8.17951C39.8709 7.70284 39.9923 7.33451 40.2349 7.07451C40.4776 6.80584 40.8763 6.61518 41.4309 6.50251C41.9856 6.38118 42.7569 6.32051 43.7449 6.32051H44.0309V5.89151C44.0309 5.36284 43.9226 4.98151 43.7059 4.74751C43.4893 4.50484 43.1383 4.38351 42.6529 4.38351C41.9249 4.38351 41.2013 4.60884 40.4819 5.05951L40.1309 4.29251C40.4603 4.05851 40.8546 3.87218 41.3139 3.73351C41.7819 3.58618 42.2326 3.51251 42.6659 3.51251ZM42.2499 9.25851C42.7699 9.25851 43.1946 9.08518 43.5239 8.73851C43.8619 8.38318 44.0309 7.92818 44.0309 7.37351V6.99651H43.7969C43.0343 6.99651 42.4536 7.03118 42.0549 7.10051C41.6563 7.16118 41.3703 7.26951 41.1969 7.42551C41.0323 7.57284 40.9499 7.79384 40.9499 8.08851C40.9499 8.42651 41.0713 8.70818 41.3139 8.93351C41.5653 9.15018 41.8773 9.25851 42.2499 9.25851ZM50.1705 3.51251C51.6872 3.51251 52.4455 4.34884 52.4455 6.02151V9.99951H51.3925V6.08651C51.3925 5.49718 51.2755 5.06818 51.0415 4.79951C50.8162 4.53084 50.4522 4.39651 49.9495 4.39651C49.3688 4.39651 48.9052 4.57418 48.5585 4.92951C48.2118 5.28484 48.0385 5.76584 48.0385 6.37251V9.99951H46.9855V3.66851H48.0255V4.70851C48.2335 4.31851 48.5238 4.02384 48.8965 3.82451C49.2692 3.61651 49.6938 3.51251 50.1705 3.51251ZM57.1562 9.24551C57.3468 9.24551 57.5375 9.23251 57.7282 9.20651L57.6762 10.0385C57.4768 10.0732 57.2602 10.0905 57.0262 10.0905C56.2635 10.0905 55.6872 9.89118 55.2972 9.49251C54.9158 9.09385 54.7252 8.53918 54.7252 7.82851V4.50051H53.4902V3.66851H54.7252V1.74451H55.7782V3.66851H57.5722V4.50051H55.7782V7.75051C55.7782 8.74718 56.2375 9.24551 57.1562 9.24551ZM58.7921 0.834511H59.8451V9.99951H58.7921V0.834511ZM61.8136 3.66851H62.8666V9.99951H61.8136V3.66851ZM62.9836 0.925512V2.10851H61.7096V0.925512H62.9836ZM68.0201 3.51251C69.5368 3.51251 70.2951 4.34884 70.2951 6.02151V9.99951H69.2421V6.08651C69.2421 5.49718 69.1251 5.06818 68.8911 4.79951C68.6658 4.53084 68.3018 4.39651 67.7991 4.39651C67.2184 4.39651 66.7548 4.57418 66.4081 4.92951C66.0614 5.28484 65.8881 5.76584 65.8881 6.37251V9.99951H64.8351V3.66851H65.8751V4.70851C66.0831 4.31851 66.3734 4.02384 66.7461 3.82451C67.1188 3.61651 67.5434 3.51251 68.0201 3.51251ZM77.8918 3.66851V9.57051C77.8918 10.5152 77.6491 11.2258 77.1638 11.7025C76.6784 12.1878 75.9591 12.4305 75.0058 12.4305C73.8964 12.4305 72.9648 12.1445 72.2108 11.5725L72.5618 10.7925C72.9864 11.0698 73.3851 11.2692 73.7578 11.3905C74.1304 11.5118 74.5464 11.5725 75.0058 11.5725C75.6124 11.5725 76.0718 11.4078 76.3838 11.0785C76.6958 10.7578 76.8518 10.2855 76.8518 9.66151V8.54351C76.6698 8.95084 76.3881 9.26284 76.0068 9.47951C75.6341 9.69618 75.1921 9.80451 74.6808 9.80451C74.1261 9.80451 73.6321 9.67451 73.1988 9.41451C72.7741 9.15451 72.4404 8.78618 72.1978 8.30951C71.9638 7.83284 71.8468 7.28251 71.8468 6.65851C71.8468 6.03451 71.9638 5.48418 72.1978 5.00751C72.4404 4.53084 72.7741 4.16251 73.1988 3.90251C73.6321 3.64251 74.1261 3.51251 74.6808 3.51251C75.1834 3.51251 75.6211 3.62084 75.9938 3.83751C76.3664 4.05418 76.6481 4.36184 76.8388 4.76051V3.66851H77.8918ZM74.8888 8.93351C75.4954 8.93351 75.9721 8.73418 76.3188 8.33551C76.6654 7.92818 76.8388 7.36918 76.8388 6.65851C76.8388 5.95651 76.6654 5.40618 76.3188 5.00751C75.9808 4.60018 75.5041 4.39651 74.8888 4.39651C74.2734 4.39651 73.7881 4.60018 73.4328 5.00751C73.0861 5.40618 72.9128 5.95651 72.9128 6.65851C72.9128 7.36918 73.0861 7.92818 73.4328 8.33551C73.7881 8.73418 74.2734 8.93351 74.8888 8.93351ZM85.8185 10.0905C85.2205 10.0905 84.6919 9.95618 84.2325 9.68751C83.7819 9.41885 83.4309 9.03751 83.1795 8.54351C82.9369 8.04085 82.8155 7.46018 82.8155 6.80151C82.8155 6.14284 82.9369 5.56651 83.1795 5.07251C83.4309 4.56984 83.7819 4.18418 84.2325 3.91551C84.6919 3.64684 85.2205 3.51251 85.8185 3.51251C86.4165 3.51251 86.9452 3.64684 87.4045 3.91551C87.8639 4.18418 88.2149 4.56984 88.4575 5.07251C88.7089 5.56651 88.8345 6.14284 88.8345 6.80151C88.8345 7.46018 88.7089 8.04085 88.4575 8.54351C88.2149 9.03751 87.8639 9.41885 87.4045 9.68751C86.9452 9.95618 86.4165 10.0905 85.8185 10.0905ZM85.8185 9.21951C86.4425 9.21951 86.9192 9.01584 87.2485 8.60851C87.5865 8.19251 87.7555 7.59018 87.7555 6.80151C87.7555 6.03018 87.5865 5.43651 87.2485 5.02051C86.9105 4.59584 86.4339 4.38351 85.8185 4.38351C85.2032 4.38351 84.7265 4.59584 84.3885 5.02051C84.0505 5.43651 83.8815 6.03018 83.8815 6.80151C83.8815 7.58151 84.0462 8.17951 84.3755 8.59551C84.7135 9.01151 85.1945 9.21951 85.8185 9.21951ZM91.7948 3.66851H93.5888V4.50051H91.7948V9.99951H90.7418V4.50051H89.5068V3.66851H90.7418V3.46051C90.7418 2.61984 90.9498 1.98284 91.3658 1.54951C91.7904 1.11618 92.4404 0.873511 93.3158 0.821511L93.8358 0.795512L93.9138 1.61451L93.3158 1.65351C92.7871 1.68818 92.4014 1.83984 92.1588 2.10851C91.9161 2.36851 91.7948 2.77151 91.7948 3.31751V3.66851ZM100.634 10.0905C100.036 10.0905 99.5073 9.95618 99.048 9.68751C98.5973 9.41885 98.2463 9.03751 97.995 8.54351C97.7523 8.04085 97.631 7.46018 97.631 6.80151C97.631 6.14284 97.7523 5.56651 97.995 5.07251C98.2463 4.56984 98.5973 4.18418 99.048 3.91551C99.5073 3.64684 100.036 3.51251 100.634 3.51251C101.232 3.51251 101.761 3.64684 102.22 3.91551C102.679 4.18418 103.03 4.56984 103.273 5.07251C103.524 5.56651 103.65 6.14284 103.65 6.80151C103.65 7.46018 103.524 8.04085 103.273 8.54351C103.03 9.03751 102.679 9.41885 102.22 9.68751C101.761 9.95618 101.232 10.0905 100.634 10.0905ZM100.634 9.21951C101.258 9.21951 101.735 9.01584 102.064 8.60851C102.402 8.19251 102.571 7.59018 102.571 6.80151C102.571 6.03018 102.402 5.43651 102.064 5.02051C101.726 4.59584 101.249 4.38351 100.634 4.38351C100.019 4.38351 99.542 4.59584 99.204 5.02051C98.866 5.43651 98.697 6.03018 98.697 6.80151C98.697 7.58151 98.8616 8.17951 99.191 8.59551C99.529 9.01151 100.01 9.21951 100.634 9.21951ZM105.219 0.834511H106.272V9.99951H105.219V0.834511ZM113.856 0.834511V9.99951H112.803V8.84251C112.613 9.24118 112.331 9.54885 111.958 9.76551C111.594 9.98218 111.165 10.0905 110.671 10.0905C110.117 10.0905 109.627 9.95185 109.202 9.67451C108.778 9.39718 108.448 9.01151 108.214 8.51751C107.98 8.01484 107.863 7.43418 107.863 6.77551C107.863 6.12551 107.98 5.55351 108.214 5.05951C108.448 4.56551 108.778 4.18418 109.202 3.91551C109.627 3.64684 110.117 3.51251 110.671 3.51251C111.165 3.51251 111.594 3.62084 111.958 3.83751C112.331 4.05418 112.613 4.36184 112.803 4.76051V0.834511H113.856ZM110.879 9.21951C111.495 9.21951 111.967 9.01151 112.296 8.59551C112.634 8.17084 112.803 7.57284 112.803 6.80151C112.803 6.03018 112.634 5.43651 112.296 5.02051C111.967 4.60451 111.495 4.39651 110.879 4.39651C110.264 4.39651 109.783 4.60451 109.436 5.02051C109.098 5.43651 108.929 6.02151 108.929 6.77551C108.929 7.54684 109.098 8.14918 109.436 8.58251C109.783 9.00718 110.264 9.21951 110.879 9.21951ZM121.836 10.0905C121.212 10.0905 120.671 9.95618 120.211 9.68751C119.752 9.41885 119.397 9.04184 119.145 8.55651C118.903 8.06251 118.781 7.48618 118.781 6.82751C118.781 6.16884 118.907 5.59251 119.158 5.09851C119.418 4.59584 119.778 4.20584 120.237 3.92851C120.705 3.65118 121.251 3.51251 121.875 3.51251C122.3 3.51251 122.716 3.59051 123.123 3.74651C123.531 3.89384 123.86 4.09318 124.111 4.34451L123.76 5.12451C123.162 4.63918 122.556 4.39651 121.94 4.39651C121.29 4.39651 120.783 4.60884 120.419 5.03351C120.055 5.45818 119.873 6.05618 119.873 6.82751C119.873 7.59018 120.055 8.17951 120.419 8.59551C120.783 9.01151 121.29 9.21951 121.94 9.21951C122.556 9.21951 123.162 8.97685 123.76 8.49151L124.111 9.27151C123.843 9.52285 123.505 9.72218 123.097 9.86951C122.69 10.0168 122.27 10.0905 121.836 10.0905ZM128.005 10.0905C127.407 10.0905 126.878 9.95618 126.419 9.68751C125.968 9.41885 125.617 9.03751 125.366 8.54351C125.123 8.04085 125.002 7.46018 125.002 6.80151C125.002 6.14284 125.123 5.56651 125.366 5.07251C125.617 4.56984 125.968 4.18418 126.419 3.91551C126.878 3.64684 127.407 3.51251 128.005 3.51251C128.603 3.51251 129.132 3.64684 129.591 3.91551C130.05 4.18418 130.401 4.56984 130.644 5.07251C130.895 5.56651 131.021 6.14284 131.021 6.80151C131.021 7.46018 130.895 8.04085 130.644 8.54351C130.401 9.03751 130.05 9.41885 129.591 9.68751C129.132 9.95618 128.603 10.0905 128.005 10.0905ZM128.005 9.21951C128.629 9.21951 129.106 9.01584 129.435 8.60851C129.773 8.19251 129.942 7.59018 129.942 6.80151C129.942 6.03018 129.773 5.43651 129.435 5.02051C129.097 4.59584 128.62 4.38351 128.005 4.38351C127.39 4.38351 126.913 4.59584 126.575 5.02051C126.237 5.43651 126.068 6.03018 126.068 6.80151C126.068 7.58151 126.233 8.17951 126.562 8.59551C126.9 9.01151 127.381 9.21951 128.005 9.21951ZM135.164 3.51251C135.97 3.51251 136.568 3.72051 136.958 4.13651C137.357 4.54384 137.556 5.16784 137.556 6.00851V9.99951H136.529V8.92051C136.364 9.29318 136.113 9.58351 135.775 9.79151C135.437 9.99085 135.047 10.0905 134.605 10.0905C134.198 10.0905 133.821 10.0082 133.474 9.84351C133.136 9.67885 132.867 9.44918 132.668 9.15451C132.469 8.85984 132.369 8.53484 132.369 8.17951C132.369 7.70284 132.49 7.33451 132.733 7.07451C132.976 6.80584 133.374 6.61518 133.929 6.50251C134.484 6.38118 135.255 6.32051 136.243 6.32051H136.529V5.89151C136.529 5.36284 136.421 4.98151 136.204 4.74751C135.987 4.50484 135.636 4.38351 135.151 4.38351C134.423 4.38351 133.699 4.60884 132.98 5.05951L132.629 4.29251C132.958 4.05851 133.353 3.87218 133.812 3.73351C134.28 3.58618 134.731 3.51251 135.164 3.51251ZM134.748 9.25851C135.268 9.25851 135.693 9.08518 136.022 8.73851C136.36 8.38318 136.529 7.92818 136.529 7.37351V6.99651H136.295C135.532 6.99651 134.952 7.03118 134.553 7.10051C134.154 7.16118 133.868 7.26951 133.695 7.42551C133.53 7.57284 133.448 7.79384 133.448 8.08851C133.448 8.42651 133.569 8.70818 133.812 8.93351C134.063 9.15018 134.375 9.25851 134.748 9.25851ZM142.266 9.24551C142.456 9.24551 142.647 9.23251 142.838 9.20651L142.786 10.0385C142.586 10.0732 142.37 10.0905 142.136 10.0905C141.373 10.0905 140.797 9.89118 140.407 9.49251C140.025 9.09385 139.835 8.53918 139.835 7.82851V4.50051H138.6V3.66851H139.835V1.74451H140.888V3.66851H142.682V4.50051H140.888V7.75051C140.888 8.74718 141.347 9.24551 142.266 9.24551ZM143.902 3.66851H144.955V9.99951H143.902V3.66851ZM145.072 0.925512V2.10851H143.798V0.925512H145.072ZM150.108 3.51251C151.625 3.51251 152.383 4.34884 152.383 6.02151V9.99951H151.33V6.08651C151.33 5.49718 151.213 5.06818 150.979 4.79951C150.754 4.53084 150.39 4.39651 149.887 4.39651C149.306 4.39651 148.843 4.57418 148.496 4.92951C148.149 5.28484 147.976 5.76584 147.976 6.37251V9.99951H146.923V3.66851H147.963V4.70851C148.171 4.31851 148.461 4.02384 148.834 3.82451C149.207 3.61651 149.631 3.51251 150.108 3.51251ZM159.98 3.66851V9.57051C159.98 10.5152 159.737 11.2258 159.252 11.7025C158.766 12.1878 158.047 12.4305 157.094 12.4305C155.984 12.4305 155.053 12.1445 154.299 11.5725L154.65 10.7925C155.074 11.0698 155.473 11.2692 155.846 11.3905C156.218 11.5118 156.634 11.5725 157.094 11.5725C157.7 11.5725 158.16 11.4078 158.472 11.0785C158.784 10.7578 158.94 10.2855 158.94 9.66151V8.54351C158.758 8.95084 158.476 9.26284 158.095 9.47951C157.722 9.69618 157.28 9.80451 156.769 9.80451C156.214 9.80451 155.72 9.67451 155.287 9.41451C154.862 9.15451 154.528 8.78618 154.286 8.30951C154.052 7.83284 153.935 7.28251 153.935 6.65851C153.935 6.03451 154.052 5.48418 154.286 5.00751C154.528 4.53084 154.862 4.16251 155.287 3.90251C155.72 3.64251 156.214 3.51251 156.769 3.51251C157.271 3.51251 157.709 3.62084 158.082 3.83751C158.454 4.05418 158.736 4.36184 158.927 4.76051V3.66851H159.98ZM156.977 8.93351C157.583 8.93351 158.06 8.73418 158.407 8.33551C158.753 7.92818 158.927 7.36918 158.927 6.65851C158.927 5.95651 158.753 5.40618 158.407 5.00751C158.069 4.60018 157.592 4.39651 156.977 4.39651C156.361 4.39651 155.876 4.60018 155.521 5.00751C155.174 5.40618 155.001 5.95651 155.001 6.65851C155.001 7.36918 155.174 7.92818 155.521 8.33551C155.876 8.73418 156.361 8.93351 156.977 8.93351ZM164.074 10.0905C163.008 10.0905 162.163 9.81751 161.539 9.27151L161.89 8.49151C162.228 8.76018 162.57 8.95518 162.917 9.07651C163.272 9.18918 163.671 9.24551 164.113 9.24551C164.581 9.24551 164.936 9.16751 165.179 9.01151C165.43 8.84684 165.556 8.61284 165.556 8.30951C165.556 8.05818 165.474 7.85884 165.309 7.71151C165.144 7.56418 164.871 7.44718 164.49 7.36051L163.424 7.11351C162.887 6.99218 162.475 6.78418 162.189 6.48951C161.903 6.19484 161.76 5.83084 161.76 5.39751C161.76 4.83418 161.981 4.37918 162.423 4.03251C162.865 3.68584 163.454 3.51251 164.191 3.51251C164.633 3.51251 165.053 3.58618 165.452 3.73351C165.851 3.87218 166.184 4.07584 166.453 4.34451L166.102 5.11151C165.521 4.61751 164.884 4.37051 164.191 4.37051C163.749 4.37051 163.402 4.45718 163.151 4.63051C162.908 4.79518 162.787 5.02918 162.787 5.33251C162.787 5.58384 162.861 5.78751 163.008 5.94351C163.164 6.09084 163.411 6.20351 163.749 6.28151L164.828 6.54151C165.417 6.68018 165.855 6.89251 166.141 7.17851C166.427 7.45584 166.57 7.81985 166.57 8.27051C166.57 8.82518 166.345 9.26718 165.894 9.59651C165.452 9.92585 164.845 10.0905 164.074 10.0905ZM2.40576 35.8555C1.98976 35.8555 1.59976 35.7558 1.23576 35.5565C0.871756 35.3485 0.581423 35.0712 0.364756 34.7245C0.156756 34.3692 0.0527559 33.9792 0.0527559 33.5545C0.0527559 33.1558 0.152423 32.7788 0.351756 32.4235C0.559756 32.0682 0.841423 31.7822 1.19676 31.5655C1.56076 31.3488 1.96376 31.2405 2.40576 31.2405C2.82176 31.2405 3.20742 31.3445 3.56276 31.5525C3.92676 31.7518 4.21709 32.0292 4.43376 32.3845C4.65042 32.7312 4.75876 33.1212 4.75876 33.5545C4.75876 33.9705 4.65042 34.3562 4.43376 34.7115C4.22576 35.0582 3.93976 35.3355 3.57576 35.5435C3.22042 35.7515 2.83042 35.8555 2.40576 35.8555ZM23.0397 27.8345L19.8417 36.9995H18.9317L16.3187 29.4985L13.7057 36.9995H12.8087L9.5977 27.8345H10.6767L13.2767 35.4915L15.9417 27.8345L16.7477 27.8475L19.3737 35.5045L21.9997 27.8345H23.0397ZM26.3017 30.5125C27.1077 30.5125 27.7057 30.7205 28.0957 31.1365C28.4944 31.5438 28.6937 32.1678 28.6937 33.0085V36.9995H27.6667V35.9205C27.502 36.2932 27.2507 36.5835 26.9127 36.7915C26.5747 36.9908 26.1847 37.0905 25.7427 37.0905C25.3354 37.0905 24.9584 37.0082 24.6117 36.8435C24.2737 36.6788 24.005 36.4492 23.8057 36.1545C23.6064 35.8598 23.5067 35.5348 23.5067 35.1795C23.5067 34.7028 23.628 34.3345 23.8707 34.0745C24.1134 33.8058 24.512 33.6152 25.0667 33.5025C25.6214 33.3812 26.3927 33.3205 27.3807 33.3205H27.6667V32.8915C27.6667 32.3628 27.5584 31.9815 27.3417 31.7475C27.125 31.5048 26.774 31.3835 26.2887 31.3835C25.5607 31.3835 24.837 31.6088 24.1177 32.0595L23.7667 31.2925C24.096 31.0585 24.4904 30.8722 24.9497 30.7335C25.4177 30.5862 25.8684 30.5125 26.3017 30.5125ZM25.8857 36.2585C26.4057 36.2585 26.8304 36.0852 27.1597 35.7385C27.4977 35.3832 27.6667 34.9282 27.6667 34.3735V33.9965H27.4327C26.67 33.9965 26.0894 34.0312 25.6907 34.1005C25.292 34.1612 25.006 34.2695 24.8327 34.4255C24.668 34.5728 24.5857 34.7938 24.5857 35.0885C24.5857 35.4265 24.707 35.7082 24.9497 35.9335C25.201 36.1502 25.513 36.2585 25.8857 36.2585ZM30.6212 27.8345H31.6742V36.9995H30.6212V27.8345ZM33.6427 27.8345H34.6957V36.9995H33.6427V27.8345ZM39.8492 30.5125C40.4039 30.5125 40.8935 30.6512 41.3182 30.9285C41.7429 31.2058 42.0722 31.5958 42.3062 32.0985C42.5402 32.5925 42.6572 33.1688 42.6572 33.8275C42.6572 34.4862 42.5402 35.0625 42.3062 35.5565C42.0722 36.0418 41.7429 36.4188 41.3182 36.6875C40.9022 36.9562 40.4125 37.0905 39.8492 37.0905C39.3552 37.0905 38.9219 36.9822 38.5492 36.7655C38.1852 36.5488 37.9079 36.2412 37.7172 35.8425V39.3395H36.6642V30.6685H37.7172V31.7605C37.9079 31.3618 38.1852 31.0542 38.5492 30.8375C38.9219 30.6208 39.3552 30.5125 39.8492 30.5125ZM39.6412 36.2195C40.2565 36.2195 40.7332 36.0115 41.0712 35.5955C41.4092 35.1795 41.5782 34.5902 41.5782 33.8275C41.5782 33.0648 41.4092 32.4712 41.0712 32.0465C40.7332 31.6132 40.2565 31.3965 39.6412 31.3965C39.0259 31.3965 38.5492 31.6045 38.2112 32.0205C37.8819 32.4365 37.7172 33.0302 37.7172 33.8015C37.7172 34.5728 37.8819 35.1708 38.2112 35.5955C38.5492 36.0115 39.0259 36.2195 39.6412 36.2195ZM46.8046 30.5125C47.6106 30.5125 48.2086 30.7205 48.5986 31.1365C48.9973 31.5438 49.1966 32.1678 49.1966 33.0085V36.9995H48.1696V35.9205C48.0049 36.2932 47.7536 36.5835 47.4156 36.7915C47.0776 36.9908 46.6876 37.0905 46.2456 37.0905C45.8383 37.0905 45.4613 37.0082 45.1146 36.8435C44.7766 36.6788 44.5079 36.4492 44.3086 36.1545C44.1093 35.8598 44.0096 35.5348 44.0096 35.1795C44.0096 34.7028 44.1309 34.3345 44.3736 34.0745C44.6163 33.8058 45.0149 33.6152 45.5696 33.5025C46.1243 33.3812 46.8956 33.3205 47.8836 33.3205H48.1696V32.8915C48.1696 32.3628 48.0613 31.9815 47.8446 31.7475C47.6279 31.5048 47.2769 31.3835 46.7916 31.3835C46.0636 31.3835 45.3399 31.6088 44.6206 32.0595L44.2696 31.2925C44.5989 31.0585 44.9933 30.8722 45.4526 30.7335C45.9206 30.5862 46.3713 30.5125 46.8046 30.5125ZM46.3886 36.2585C46.9086 36.2585 47.3333 36.0852 47.6626 35.7385C48.0006 35.3832 48.1696 34.9282 48.1696 34.3735V33.9965H47.9356C47.1729 33.9965 46.5923 34.0312 46.1936 34.1005C45.7949 34.1612 45.5089 34.2695 45.3356 34.4255C45.1709 34.5728 45.0886 34.7938 45.0886 35.0885C45.0886 35.4265 45.2099 35.7082 45.4526 35.9335C45.7039 36.1502 46.0159 36.2585 46.3886 36.2585ZM54.3092 30.5125C54.8638 30.5125 55.3535 30.6512 55.7782 30.9285C56.2028 31.2058 56.5322 31.5958 56.7662 32.0985C57.0002 32.5925 57.1172 33.1688 57.1172 33.8275C57.1172 34.4862 57.0002 35.0625 56.7662 35.5565C56.5322 36.0418 56.2028 36.4188 55.7782 36.6875C55.3622 36.9562 54.8725 37.0905 54.3092 37.0905C53.8152 37.0905 53.3818 36.9822 53.0092 36.7655C52.6452 36.5488 52.3678 36.2412 52.1772 35.8425V39.3395H51.1242V30.6685H52.1772V31.7605C52.3678 31.3618 52.6452 31.0542 53.0092 30.8375C53.3818 30.6208 53.8152 30.5125 54.3092 30.5125ZM54.1012 36.2195C54.7165 36.2195 55.1932 36.0115 55.5312 35.5955C55.8692 35.1795 56.0382 34.5902 56.0382 33.8275C56.0382 33.0648 55.8692 32.4712 55.5312 32.0465C55.1932 31.6132 54.7165 31.3965 54.1012 31.3965C53.4858 31.3965 53.0092 31.6045 52.6712 32.0205C52.3418 32.4365 52.1772 33.0302 52.1772 33.8015C52.1772 34.5728 52.3418 35.1708 52.6712 35.5955C53.0092 36.0115 53.4858 36.2195 54.1012 36.2195ZM63.9946 33.9965H59.3666C59.4012 34.7332 59.6006 35.2922 59.9646 35.6735C60.3286 36.0462 60.8442 36.2325 61.5116 36.2325C62.2482 36.2325 62.9242 35.9812 63.5396 35.4785L63.8906 36.2455C63.6132 36.5055 63.2579 36.7135 62.8246 36.8695C62.3912 37.0168 61.9492 37.0905 61.4986 37.0905C60.5106 37.0905 59.7306 36.8002 59.1586 36.2195C58.5952 35.6388 58.3136 34.8372 58.3136 33.8145C58.3136 33.1645 58.4392 32.5925 58.6906 32.0985C58.9419 31.5958 59.2929 31.2058 59.7436 30.9285C60.2029 30.6512 60.7229 30.5125 61.3036 30.5125C62.1442 30.5125 62.8029 30.7898 63.2796 31.3445C63.7562 31.8905 63.9946 32.6445 63.9946 33.6065V33.9965ZM61.3166 31.3315C60.7619 31.3315 60.3156 31.5048 59.9776 31.8515C59.6482 32.1982 59.4532 32.6878 59.3926 33.3205H63.0716C63.0542 32.6792 62.8939 32.1895 62.5906 31.8515C62.2872 31.5048 61.8626 31.3315 61.3166 31.3315ZM69.134 31.4225L68.445 31.4875C67.795 31.5482 67.3227 31.7518 67.028 32.0985C66.742 32.4452 66.599 32.8742 66.599 33.3855V36.9995H65.546V30.6685H66.573V31.7735C66.9284 31.0368 67.626 30.6252 68.666 30.5385L69.043 30.5125L69.134 31.4225ZM70.1291 30.6685H71.1821V36.9995H70.1291V30.6685ZM71.2991 27.9255V29.1085H70.0251V27.9255H71.2991ZM76.3355 30.5125C77.8522 30.5125 78.6105 31.3488 78.6105 33.0215V36.9995H77.5575V33.0865C77.5575 32.4972 77.4405 32.0682 77.2065 31.7995C76.9812 31.5308 76.6172 31.3965 76.1145 31.3965C75.5339 31.3965 75.0702 31.5742 74.7235 31.9295C74.3769 32.2848 74.2035 32.7658 74.2035 33.3725V36.9995H73.1505V30.6685H74.1905V31.7085C74.3985 31.3185 74.6889 31.0238 75.0615 30.8245C75.4342 30.6165 75.8589 30.5125 76.3355 30.5125ZM86.2072 30.6685V36.5705C86.2072 37.5152 85.9645 38.2258 85.4792 38.7025C84.9939 39.1878 84.2745 39.4305 83.3212 39.4305C82.2119 39.4305 81.2802 39.1445 80.5262 38.5725L80.8772 37.7925C81.3019 38.0698 81.7005 38.2692 82.0732 38.3905C82.4459 38.5118 82.8619 38.5725 83.3212 38.5725C83.9279 38.5725 84.3872 38.4078 84.6992 38.0785C85.0112 37.7578 85.1672 37.2855 85.1672 36.6615V35.5435C84.9852 35.9508 84.7035 36.2628 84.3222 36.4795C83.9495 36.6962 83.5075 36.8045 82.9962 36.8045C82.4415 36.8045 81.9475 36.6745 81.5142 36.4145C81.0895 36.1545 80.7559 35.7862 80.5132 35.3095C80.2792 34.8328 80.1622 34.2825 80.1622 33.6585C80.1622 33.0345 80.2792 32.4842 80.5132 32.0075C80.7559 31.5308 81.0895 31.1625 81.5142 30.9025C81.9475 30.6425 82.4415 30.5125 82.9962 30.5125C83.4989 30.5125 83.9365 30.6208 84.3092 30.8375C84.6819 31.0542 84.9635 31.3618 85.1542 31.7605V30.6685H86.2072ZM83.2042 35.9335C83.8109 35.9335 84.2875 35.7342 84.6342 35.3355C84.9809 34.9282 85.1542 34.3692 85.1542 33.6585C85.1542 32.9565 84.9809 32.4062 84.6342 32.0075C84.2962 31.6002 83.8195 31.3965 83.2042 31.3965C82.5889 31.3965 82.1035 31.6002 81.7482 32.0075C81.4015 32.4062 81.2282 32.9565 81.2282 33.6585C81.2282 34.3692 81.4015 34.9282 81.7482 35.3355C82.1035 35.7342 82.5889 35.9335 83.2042 35.9335ZM2.40576 61.8555C1.98976 61.8555 1.59976 61.7558 1.23576 61.5565C0.871756 61.3485 0.581423 61.0712 0.364756 60.7245C0.156756 60.3692 0.0527559 59.9792 0.0527559 59.5545C0.0527559 59.1558 0.152423 58.7788 0.351756 58.4235C0.559756 58.0682 0.841423 57.7822 1.19676 57.5655C1.56076 57.3488 1.96376 57.2405 2.40576 57.2405C2.82176 57.2405 3.20742 57.3445 3.56276 57.5525C3.92676 57.7518 4.21709 58.0292 4.43376 58.3845C4.65042 58.7312 4.75876 59.1212 4.75876 59.5545C4.75876 59.9705 4.65042 60.3562 4.43376 60.7115C4.22576 61.0582 3.93976 61.3355 3.57576 61.5435C3.22042 61.7515 2.83042 61.8555 2.40576 61.8555ZM10.2997 53.8345H13.9267C14.8887 53.8345 15.634 54.0685 16.1627 54.5365C16.7 55.0045 16.9687 55.6675 16.9687 56.5255C16.9687 57.3835 16.7 58.0508 16.1627 58.5275C15.6254 59.0042 14.88 59.2425 13.9267 59.2425H11.3657V62.9995H10.2997V53.8345ZM13.8227 58.3585C15.218 58.3585 15.9157 57.7475 15.9157 56.5255C15.9157 55.3208 15.218 54.7185 13.8227 54.7185H11.3657V58.3585H13.8227ZM20.957 56.5125C21.763 56.5125 22.361 56.7205 22.751 57.1365C23.1496 57.5438 23.349 58.1678 23.349 59.0085V62.9995H22.322V61.9205C22.1573 62.2932 21.906 62.5835 21.568 62.7915C21.23 62.9908 20.84 63.0905 20.398 63.0905C19.9906 63.0905 19.6136 63.0082 19.267 62.8435C18.929 62.6788 18.6603 62.4492 18.461 62.1545C18.2616 61.8598 18.162 61.5348 18.162 61.1795C18.162 60.7028 18.2833 60.3345 18.526 60.0745C18.7686 59.8058 19.1673 59.6152 19.722 59.5025C20.2766 59.3812 21.048 59.3205 22.036 59.3205H22.322V58.8915C22.322 58.3628 22.2136 57.9815 21.997 57.7475C21.7803 57.5048 21.4293 57.3835 20.944 57.3835C20.216 57.3835 19.4923 57.6088 18.773 58.0595L18.422 57.2925C18.7513 57.0585 19.1456 56.8722 19.605 56.7335C20.073 56.5862 20.5236 56.5125 20.957 56.5125ZM20.541 62.2585C21.061 62.2585 21.4856 62.0852 21.815 61.7385C22.153 61.3832 22.322 60.9282 22.322 60.3735V59.9965H22.088C21.3253 59.9965 20.7446 60.0312 20.346 60.1005C19.9473 60.1612 19.6613 60.2695 19.488 60.4255C19.3233 60.5728 19.241 60.7938 19.241 61.0885C19.241 61.4265 19.3623 61.7082 19.605 61.9335C19.8563 62.1502 20.1683 62.2585 20.541 62.2585ZM25.2765 56.6685H26.3295V62.9995H25.2765V56.6685ZM26.4465 53.9255V55.1085H25.1725V53.9255H26.4465ZM31.483 56.5125C32.9997 56.5125 33.758 57.3488 33.758 59.0215V62.9995H32.705V59.0865C32.705 58.4972 32.588 58.0682 32.354 57.7995C32.1287 57.5308 31.7647 57.3965 31.262 57.3965C30.6813 57.3965 30.2177 57.5742 29.871 57.9295C29.5243 58.2848 29.351 58.7658 29.351 59.3725V62.9995H28.298V56.6685H29.338V57.7085C29.546 57.3185 29.8363 57.0238 30.209 56.8245C30.5817 56.6165 31.0063 56.5125 31.483 56.5125ZM38.4687 62.2455C38.6593 62.2455 38.85 62.2325 39.0407 62.2065L38.9887 63.0385C38.7893 63.0732 38.5727 63.0905 38.3387 63.0905C37.576 63.0905 36.9997 62.8912 36.6097 62.4925C36.2283 62.0938 36.0377 61.5392 36.0377 60.8285V57.5005H34.8027V56.6685H36.0377V54.7445H37.0907V56.6685H38.8847V57.5005H37.0907V60.7505C37.0907 61.7472 37.55 62.2455 38.4687 62.2455ZM40.1046 56.6685H41.1576V62.9995H40.1046V56.6685ZM41.2746 53.9255V55.1085H40.0006V53.9255H41.2746ZM46.3111 56.5125C47.8278 56.5125 48.5861 57.3488 48.5861 59.0215V62.9995H47.5331V59.0865C47.5331 58.4972 47.4161 58.0682 47.1821 57.7995C46.9568 57.5308 46.5928 57.3965 46.0901 57.3965C45.5095 57.3965 45.0458 57.5742 44.6991 57.9295C44.3525 58.2848 44.1791 58.7658 44.1791 59.3725V62.9995H43.1261V56.6685H44.1661V57.7085C44.3741 57.3185 44.6645 57.0238 45.0371 56.8245C45.4098 56.6165 45.8345 56.5125 46.3111 56.5125ZM56.1828 56.6685V62.5705C56.1828 63.5152 55.9401 64.2258 55.4548 64.7025C54.9695 65.1878 54.2501 65.4305 53.2968 65.4305C52.1875 65.4305 51.2558 65.1445 50.5018 64.5725L50.8528 63.7925C51.2775 64.0698 51.6761 64.2692 52.0488 64.3905C52.4215 64.5118 52.8375 64.5725 53.2968 64.5725C53.9035 64.5725 54.3628 64.4078 54.6748 64.0785C54.9868 63.7578 55.1428 63.2855 55.1428 62.6615V61.5435C54.9608 61.9508 54.6791 62.2628 54.2978 62.4795C53.9251 62.6962 53.4831 62.8045 52.9718 62.8045C52.4171 62.8045 51.9231 62.6745 51.4898 62.4145C51.0651 62.1545 50.7315 61.7862 50.4888 61.3095C50.2548 60.8328 50.1378 60.2825 50.1378 59.6585C50.1378 59.0345 50.2548 58.4842 50.4888 58.0075C50.7315 57.5308 51.0651 57.1625 51.4898 56.9025C51.9231 56.6425 52.4171 56.5125 52.9718 56.5125C53.4745 56.5125 53.9121 56.6208 54.2848 56.8375C54.6575 57.0542 54.9391 57.3618 55.1298 57.7605V56.6685H56.1828ZM53.1798 61.9335C53.7865 61.9335 54.2631 61.7342 54.6098 61.3355C54.9565 60.9282 55.1298 60.3692 55.1298 59.6585C55.1298 58.9565 54.9565 58.4062 54.6098 58.0075C54.2718 57.6002 53.7951 57.3965 53.1798 57.3965C52.5645 57.3965 52.0791 57.6002 51.7238 58.0075C51.3771 58.4062 51.2038 58.9565 51.2038 59.6585C51.2038 60.3692 51.3771 60.9282 51.7238 61.3355C52.0791 61.7342 52.5645 61.9335 53.1798 61.9335ZM71.1295 56.6685L68.7765 62.9995H67.7625L65.9815 58.0985L64.1875 62.9995H63.1865L60.8335 56.6685H61.9255L63.7195 61.7515L65.5525 56.6685H66.4625L68.2695 61.7515L70.0765 56.6685H71.1295ZM74.8866 56.5125C75.6926 56.5125 76.2906 56.7205 76.6806 57.1365C77.0793 57.5438 77.2786 58.1678 77.2786 59.0085V62.9995H76.2516V61.9205C76.087 62.2932 75.8356 62.5835 75.4976 62.7915C75.1596 62.9908 74.7696 63.0905 74.3276 63.0905C73.9203 63.0905 73.5433 63.0082 73.1966 62.8435C72.8586 62.6788 72.59 62.4492 72.3906 62.1545C72.1913 61.8598 72.0916 61.5348 72.0916 61.1795C72.0916 60.7028 72.213 60.3345 72.4556 60.0745C72.6983 59.8058 73.097 59.6152 73.6516 59.5025C74.2063 59.3812 74.9776 59.3205 75.9656 59.3205H76.2516V58.8915C76.2516 58.3628 76.1433 57.9815 75.9266 57.7475C75.71 57.5048 75.359 57.3835 74.8736 57.3835C74.1456 57.3835 73.422 57.6088 72.7026 58.0595L72.3516 57.2925C72.681 57.0585 73.0753 56.8722 73.5346 56.7335C74.0026 56.5862 74.4533 56.5125 74.8866 56.5125ZM74.4706 62.2585C74.9906 62.2585 75.4153 62.0852 75.7446 61.7385C76.0826 61.3832 76.2516 60.9282 76.2516 60.3735V59.9965H76.0176C75.255 59.9965 74.6743 60.0312 74.2756 60.1005C73.877 60.1612 73.591 60.2695 73.4176 60.4255C73.253 60.5728 73.1706 60.7938 73.1706 61.0885C73.1706 61.4265 73.292 61.7082 73.5346 61.9335C73.786 62.1502 74.098 62.2585 74.4706 62.2585ZM79.2062 53.8345H80.2592V62.9995H79.2062V53.8345ZM82.2277 53.8345H83.2807V62.9995H82.2277V53.8345ZM87.3942 63.0905C86.3282 63.0905 85.4832 62.8175 84.8592 62.2715L85.2102 61.4915C85.5482 61.7602 85.8905 61.9552 86.2372 62.0765C86.5925 62.1892 86.9912 62.2455 87.4332 62.2455C87.9012 62.2455 88.2565 62.1675 88.4992 62.0115C88.7505 61.8468 88.8762 61.6128 88.8762 61.3095C88.8762 61.0582 88.7938 60.8588 88.6292 60.7115C88.4645 60.5642 88.1915 60.4472 87.8102 60.3605L86.7442 60.1135C86.2068 59.9922 85.7952 59.7842 85.5092 59.4895C85.2232 59.1948 85.0802 58.8308 85.0802 58.3975C85.0802 57.8342 85.3012 57.3792 85.7432 57.0325C86.1852 56.6858 86.7745 56.5125 87.5112 56.5125C87.9532 56.5125 88.3735 56.5862 88.7722 56.7335C89.1708 56.8722 89.5045 57.0758 89.7732 57.3445L89.4222 58.1115C88.8415 57.6175 88.2045 57.3705 87.5112 57.3705C87.0692 57.3705 86.7225 57.4572 86.4712 57.6305C86.2285 57.7952 86.1072 58.0292 86.1072 58.3325C86.1072 58.5838 86.1808 58.7875 86.3282 58.9435C86.4842 59.0908 86.7312 59.2035 87.0692 59.2815L88.1482 59.5415C88.7375 59.6802 89.1752 59.8925 89.4612 60.1785C89.7472 60.4558 89.8902 60.8198 89.8902 61.2705C89.8902 61.8252 89.6648 62.2672 89.2142 62.5965C88.7722 62.9258 88.1655 63.0905 87.3942 63.0905ZM97.4208 56.5125C98.2268 56.5125 98.8248 56.7205 99.2148 57.1365C99.6135 57.5438 99.8128 58.1678 99.8128 59.0085V62.9995H98.7858V61.9205C98.6212 62.2932 98.3698 62.5835 98.0318 62.7915C97.6938 62.9908 97.3038 63.0905 96.8618 63.0905C96.4545 63.0905 96.0775 63.0082 95.7308 62.8435C95.3928 62.6788 95.1242 62.4492 94.9248 62.1545C94.7255 61.8598 94.6258 61.5348 94.6258 61.1795C94.6258 60.7028 94.7472 60.3345 94.9898 60.0745C95.2325 59.8058 95.6312 59.6152 96.1858 59.5025C96.7405 59.3812 97.5118 59.3205 98.4998 59.3205H98.7858V58.8915C98.7858 58.3628 98.6775 57.9815 98.4608 57.7475C98.2442 57.5048 97.8932 57.3835 97.4078 57.3835C96.6798 57.3835 95.9562 57.6088 95.2368 58.0595L94.8858 57.2925C95.2152 57.0585 95.6095 56.8722 96.0688 56.7335C96.5368 56.5862 96.9875 56.5125 97.4208 56.5125ZM97.0048 62.2585C97.5248 62.2585 97.9495 62.0852 98.2788 61.7385C98.6168 61.3832 98.7858 60.9282 98.7858 60.3735V59.9965H98.5518C97.7892 59.9965 97.2085 60.0312 96.8098 60.1005C96.4112 60.1612 96.1252 60.2695 95.9518 60.4255C95.7872 60.5728 95.7048 60.7938 95.7048 61.0885C95.7048 61.4265 95.8262 61.7082 96.0688 61.9335C96.3202 62.1502 96.6322 62.2585 97.0048 62.2585ZM104.925 56.5125C106.442 56.5125 107.2 57.3488 107.2 59.0215V62.9995H106.147V59.0865C106.147 58.4972 106.03 58.0682 105.796 57.7995C105.571 57.5308 105.207 57.3965 104.704 57.3965C104.124 57.3965 103.66 57.5742 103.313 57.9295C102.967 58.2848 102.793 58.7658 102.793 59.3725V62.9995H101.74V56.6685H102.78V57.7085C102.988 57.3185 103.279 57.0238 103.651 56.8245C104.024 56.6165 104.449 56.5125 104.925 56.5125ZM114.745 53.8345V62.9995H113.692V61.8425C113.501 62.2412 113.22 62.5488 112.847 62.7655C112.483 62.9822 112.054 63.0905 111.56 63.0905C111.005 63.0905 110.516 62.9518 110.091 62.6745C109.666 62.3972 109.337 62.0115 109.103 61.5175C108.869 61.0148 108.752 60.4342 108.752 59.7755C108.752 59.1255 108.869 58.5535 109.103 58.0595C109.337 57.5655 109.666 57.1842 110.091 56.9155C110.516 56.6468 111.005 56.5125 111.56 56.5125C112.054 56.5125 112.483 56.6208 112.847 56.8375C113.22 57.0542 113.501 57.3618 113.692 57.7605V53.8345H114.745ZM111.768 62.2195C112.383 62.2195 112.856 62.0115 113.185 61.5955C113.523 61.1708 113.692 60.5728 113.692 59.8015C113.692 59.0302 113.523 58.4365 113.185 58.0205C112.856 57.6045 112.383 57.3965 111.768 57.3965C111.153 57.3965 110.672 57.6045 110.325 58.0205C109.987 58.4365 109.818 59.0215 109.818 59.7755C109.818 60.5468 109.987 61.1492 110.325 61.5825C110.672 62.0072 111.153 62.2195 111.768 62.2195ZM122.725 63.0905C122.101 63.0905 121.559 62.9562 121.1 62.6875C120.641 62.4188 120.285 62.0418 120.034 61.5565C119.791 61.0625 119.67 60.4862 119.67 59.8275C119.67 59.1688 119.796 58.5925 120.047 58.0985C120.307 57.5958 120.667 57.2058 121.126 56.9285C121.594 56.6512 122.14 56.5125 122.764 56.5125C123.189 56.5125 123.605 56.5905 124.012 56.7465C124.419 56.8938 124.749 57.0932 125 57.3445L124.649 58.1245C124.051 57.6392 123.444 57.3965 122.829 57.3965C122.179 57.3965 121.672 57.6088 121.308 58.0335C120.944 58.4582 120.762 59.0562 120.762 59.8275C120.762 60.5902 120.944 61.1795 121.308 61.5955C121.672 62.0115 122.179 62.2195 122.829 62.2195C123.444 62.2195 124.051 61.9768 124.649 61.4915L125 62.2715C124.731 62.5228 124.393 62.7222 123.986 62.8695C123.579 63.0168 123.158 63.0905 122.725 63.0905ZM131.572 59.9965H126.944C126.978 60.7332 127.178 61.2922 127.542 61.6735C127.906 62.0462 128.421 62.2325 129.089 62.2325C129.825 62.2325 130.501 61.9812 131.117 61.4785L131.468 62.2455C131.19 62.5055 130.835 62.7135 130.402 62.8695C129.968 63.0168 129.526 63.0905 129.076 63.0905C128.088 63.0905 127.308 62.8002 126.736 62.2195C126.172 61.6388 125.891 60.8372 125.891 59.8145C125.891 59.1645 126.016 58.5925 126.268 58.0985C126.519 57.5958 126.87 57.2058 127.321 56.9285C127.78 56.6512 128.3 56.5125 128.881 56.5125C129.721 56.5125 130.38 56.7898 130.857 57.3445C131.333 57.8905 131.572 58.6445 131.572 59.6065V59.9965ZM128.894 57.3315C128.339 57.3315 127.893 57.5048 127.555 57.8515C127.225 58.1982 127.03 58.6878 126.97 59.3205H130.649C130.631 58.6792 130.471 58.1895 130.168 57.8515C129.864 57.5048 129.44 57.3315 128.894 57.3315ZM133.123 56.6685H134.176V62.9995H133.123V56.6685ZM134.293 53.9255V55.1085H133.019V53.9255H134.293ZM136.145 53.8345H137.198V62.9995H136.145V53.8345ZM139.166 56.6685H140.219V62.9995H139.166V56.6685ZM140.336 53.9255V55.1085H139.062V53.9255H140.336ZM145.373 56.5125C146.889 56.5125 147.648 57.3488 147.648 59.0215V62.9995H146.595V59.0865C146.595 58.4972 146.478 58.0682 146.244 57.7995C146.018 57.5308 145.654 57.3965 145.152 57.3965C144.571 57.3965 144.107 57.5742 143.761 57.9295C143.414 58.2848 143.241 58.7658 143.241 59.3725V62.9995H142.188V56.6685H143.228V57.7085C143.436 57.3185 143.726 57.0238 144.099 56.8245C144.471 56.6165 144.896 56.5125 145.373 56.5125ZM155.244 56.6685V62.5705C155.244 63.5152 155.002 64.2258 154.516 64.7025C154.031 65.1878 153.312 65.4305 152.358 65.4305C151.249 65.4305 150.317 65.1445 149.563 64.5725L149.914 63.7925C150.339 64.0698 150.738 64.2692 151.11 64.3905C151.483 64.5118 151.899 64.5725 152.358 64.5725C152.965 64.5725 153.424 64.4078 153.736 64.0785C154.048 63.7578 154.204 63.2855 154.204 62.6615V61.5435C154.022 61.9508 153.741 62.2628 153.359 62.4795C152.987 62.6962 152.545 62.8045 152.033 62.8045C151.479 62.8045 150.985 62.6745 150.551 62.4145C150.127 62.1545 149.793 61.7862 149.55 61.3095C149.316 60.8328 149.199 60.2825 149.199 59.6585C149.199 59.0345 149.316 58.4842 149.55 58.0075C149.793 57.5308 150.127 57.1625 150.551 56.9025C150.985 56.6425 151.479 56.5125 152.033 56.5125C152.536 56.5125 152.974 56.6208 153.346 56.8375C153.719 57.0542 154.001 57.3618 154.191 57.7605V56.6685H155.244ZM152.241 61.9335C152.848 61.9335 153.325 61.7342 153.671 61.3355C154.018 60.9282 154.191 60.3692 154.191 59.6585C154.191 58.9565 154.018 58.4062 153.671 58.0075C153.333 57.6002 152.857 57.3965 152.241 57.3965C151.626 57.3965 151.141 57.6002 150.785 58.0075C150.439 58.4062 150.265 58.9565 150.265 59.6585C150.265 60.3692 150.439 60.9282 150.785 61.3355C151.141 61.7342 151.626 61.9335 152.241 61.9335ZM159.339 63.0905C158.273 63.0905 157.428 62.8175 156.804 62.2715L157.155 61.4915C157.493 61.7602 157.835 61.9552 158.182 62.0765C158.537 62.1892 158.936 62.2455 159.378 62.2455C159.846 62.2455 160.201 62.1675 160.444 62.0115C160.695 61.8468 160.821 61.6128 160.821 61.3095C160.821 61.0582 160.738 60.8588 160.574 60.7115C160.409 60.5642 160.136 60.4472 159.755 60.3605L158.689 60.1135C158.151 59.9922 157.74 59.7842 157.454 59.4895C157.168 59.1948 157.025 58.8308 157.025 58.3975C157.025 57.8342 157.246 57.3792 157.688 57.0325C158.13 56.6858 158.719 56.5125 159.456 56.5125C159.898 56.5125 160.318 56.5862 160.717 56.7335C161.115 56.8722 161.449 57.0758 161.718 57.3445L161.367 58.1115C160.786 57.6175 160.149 57.3705 159.456 57.3705C159.014 57.3705 158.667 57.4572 158.416 57.6305C158.173 57.7952 158.052 58.0292 158.052 58.3325C158.052 58.5838 158.125 58.7875 158.273 58.9435C158.429 59.0908 158.676 59.2035 159.014 59.2815L160.093 59.5415C160.682 59.6802 161.12 59.8925 161.406 60.1785C161.692 60.4558 161.835 60.8198 161.835 61.2705C161.835 61.8252 161.609 62.2672 161.159 62.5965C160.717 62.9258 160.11 63.0905 159.339 63.0905ZM2.40576 88.8555C1.98976 88.8555 1.59976 88.7558 1.23576 88.5565C0.871756 88.3485 0.581423 88.0712 0.364756 87.7245C0.156756 87.3692 0.0527559 86.9792 0.0527559 86.5545C0.0527559 86.1558 0.152423 85.7788 0.351756 85.4235C0.559756 85.0682 0.841423 84.7822 1.19676 84.5655C1.56076 84.3488 1.96376 84.2405 2.40576 84.2405C2.82176 84.2405 3.20742 84.3445 3.56276 84.5525C3.92676 84.7518 4.21709 85.0292 4.43376 85.3845C4.65042 85.7312 4.75876 86.1212 4.75876 86.5545C4.75876 86.9705 4.65042 87.3562 4.43376 87.7115C4.22576 88.0582 3.93976 88.3355 3.57576 88.5435C3.22042 88.7515 2.83042 88.8555 2.40576 88.8555ZM10.2997 80.8345H11.3657V89.0895H15.9547V89.9995H10.2997V80.8345ZM19.7382 83.5125C20.5442 83.5125 21.1422 83.7205 21.5322 84.1365C21.9309 84.5438 22.1302 85.1678 22.1302 86.0085V89.9995H21.1032V88.9205C20.9385 89.2932 20.6872 89.5835 20.3492 89.7915C20.0112 89.9908 19.6212 90.0905 19.1792 90.0905C18.7719 90.0905 18.3949 90.0082 18.0482 89.8435C17.7102 89.6788 17.4415 89.4492 17.2422 89.1545C17.0429 88.8598 16.9432 88.5348 16.9432 88.1795C16.9432 87.7028 17.0645 87.3345 17.3072 87.0745C17.5499 86.8058 17.9485 86.6152 18.5032 86.5025C19.0579 86.3812 19.8292 86.3205 20.8172 86.3205H21.1032V85.8915C21.1032 85.3628 20.9949 84.9815 20.7782 84.7475C20.5615 84.5048 20.2105 84.3835 19.7252 84.3835C18.9972 84.3835 18.2735 84.6088 17.5542 85.0595L17.2032 84.2925C17.5325 84.0585 17.9269 83.8722 18.3862 83.7335C18.8542 83.5862 19.3049 83.5125 19.7382 83.5125ZM19.3222 89.2585C19.8422 89.2585 20.2669 89.0852 20.5962 88.7385C20.9342 88.3832 21.1032 87.9282 21.1032 87.3735V86.9965H20.8692C20.1065 86.9965 19.5259 87.0312 19.1272 87.1005C18.7285 87.1612 18.4425 87.2695 18.2692 87.4255C18.1045 87.5728 18.0222 87.7938 18.0222 88.0885C18.0222 88.4265 18.1435 88.7082 18.3862 88.9335C18.6375 89.1502 18.9495 89.2585 19.3222 89.2585ZM29.6478 83.6815L25.9038 92.3395H24.8248L25.8908 89.9215L23.2128 83.6815H24.3308L26.4498 88.8555L28.5948 83.6815H29.6478ZM30.7355 83.6685H31.7885V89.9995H30.7355V83.6685ZM31.9055 80.9255V82.1085H30.6315V80.9255H31.9055ZM36.942 83.5125C38.4586 83.5125 39.217 84.3488 39.217 86.0215V89.9995H38.164V86.0865C38.164 85.4972 38.047 85.0682 37.813 84.7995C37.5876 84.5308 37.2236 84.3965 36.721 84.3965C36.1403 84.3965 35.6766 84.5742 35.33 84.9295C34.9833 85.2848 34.81 85.7658 34.81 86.3725V89.9995H33.757V83.6685H34.797V84.7085C35.005 84.3185 35.2953 84.0238 35.668 83.8245C36.0406 83.6165 36.4653 83.5125 36.942 83.5125ZM46.8137 83.6685V89.5705C46.8137 90.5152 46.571 91.2258 46.0857 91.7025C45.6003 92.1878 44.881 92.4305 43.9277 92.4305C42.8183 92.4305 41.8867 92.1445 41.1327 91.5725L41.4837 90.7925C41.9083 91.0698 42.307 91.2692 42.6797 91.3905C43.0523 91.5118 43.4683 91.5725 43.9277 91.5725C44.5343 91.5725 44.9937 91.4078 45.3057 91.0785C45.6177 90.7578 45.7737 90.2855 45.7737 89.6615V88.5435C45.5917 88.9508 45.31 89.2628 44.9287 89.4795C44.556 89.6962 44.114 89.8045 43.6027 89.8045C43.048 89.8045 42.554 89.6745 42.1207 89.4145C41.696 89.1545 41.3623 88.7862 41.1197 88.3095C40.8857 87.8328 40.7687 87.2825 40.7687 86.6585C40.7687 86.0345 40.8857 85.4842 41.1197 85.0075C41.3623 84.5308 41.696 84.1625 42.1207 83.9025C42.554 83.6425 43.048 83.5125 43.6027 83.5125C44.1053 83.5125 44.543 83.6208 44.9157 83.8375C45.2883 84.0542 45.57 84.3618 45.7607 84.7605V83.6685H46.8137ZM43.8107 88.9335C44.4173 88.9335 44.894 88.7342 45.2407 88.3355C45.5873 87.9282 45.7607 87.3692 45.7607 86.6585C45.7607 85.9565 45.5873 85.4062 45.2407 85.0075C44.9027 84.6002 44.426 84.3965 43.8107 84.3965C43.1953 84.3965 42.71 84.6002 42.3547 85.0075C42.008 85.4062 41.8347 85.9565 41.8347 86.6585C41.8347 87.3692 42.008 87.9282 42.3547 88.3355C42.71 88.7342 43.1953 88.9335 43.8107 88.9335ZM53.5184 83.6685H55.3124V84.5005H53.5184V89.9995H52.4654V84.5005H51.2304V83.6685H52.4654V83.4605C52.4654 82.6198 52.6734 81.9828 53.0894 81.5495C53.5141 81.1162 54.1641 80.8735 55.0394 80.8215L55.5594 80.7955L55.6374 81.6145L55.0394 81.6535C54.5107 81.6882 54.1251 81.8398 53.8824 82.1085C53.6397 82.3685 53.5184 82.7715 53.5184 83.3175V83.6685ZM56.3784 80.8345H57.4314V89.9995H56.3784V80.8345ZM62.0148 90.0905C61.4168 90.0905 60.8882 89.9562 60.4288 89.6875C59.9782 89.4188 59.6272 89.0375 59.3758 88.5435C59.1332 88.0408 59.0118 87.4602 59.0118 86.8015C59.0118 86.1428 59.1332 85.5665 59.3758 85.0725C59.6272 84.5698 59.9782 84.1842 60.4288 83.9155C60.8882 83.6468 61.4168 83.5125 62.0148 83.5125C62.6128 83.5125 63.1415 83.6468 63.6008 83.9155C64.0602 84.1842 64.4112 84.5698 64.6538 85.0725C64.9052 85.5665 65.0308 86.1428 65.0308 86.8015C65.0308 87.4602 64.9052 88.0408 64.6538 88.5435C64.4112 89.0375 64.0602 89.4188 63.6008 89.6875C63.1415 89.9562 62.6128 90.0905 62.0148 90.0905ZM62.0148 89.2195C62.6388 89.2195 63.1155 89.0158 63.4448 88.6085C63.7828 88.1925 63.9518 87.5902 63.9518 86.8015C63.9518 86.0302 63.7828 85.4365 63.4448 85.0205C63.1068 84.5958 62.6302 84.3835 62.0148 84.3835C61.3995 84.3835 60.9228 84.5958 60.5848 85.0205C60.2468 85.4365 60.0778 86.0302 60.0778 86.8015C60.0778 87.5815 60.2425 88.1795 60.5718 88.5955C60.9098 89.0115 61.3908 89.2195 62.0148 89.2195ZM69.2258 90.0905C68.6278 90.0905 68.0991 89.9562 67.6398 89.6875C67.1891 89.4188 66.8381 89.0375 66.5868 88.5435C66.3441 88.0408 66.2228 87.4602 66.2228 86.8015C66.2228 86.1428 66.3441 85.5665 66.5868 85.0725C66.8381 84.5698 67.1891 84.1842 67.6398 83.9155C68.0991 83.6468 68.6278 83.5125 69.2258 83.5125C69.8238 83.5125 70.3524 83.6468 70.8118 83.9155C71.2711 84.1842 71.6221 84.5698 71.8648 85.0725C72.1161 85.5665 72.2418 86.1428 72.2418 86.8015C72.2418 87.4602 72.1161 88.0408 71.8648 88.5435C71.6221 89.0375 71.2711 89.4188 70.8118 89.6875C70.3524 89.9562 69.8238 90.0905 69.2258 90.0905ZM69.2258 89.2195C69.8498 89.2195 70.3264 89.0158 70.6558 88.6085C70.9938 88.1925 71.1628 87.5902 71.1628 86.8015C71.1628 86.0302 70.9938 85.4365 70.6558 85.0205C70.3178 84.5958 69.8411 84.3835 69.2258 84.3835C68.6104 84.3835 68.1338 84.5958 67.7958 85.0205C67.4578 85.4365 67.2888 86.0302 67.2888 86.8015C67.2888 87.5815 67.4534 88.1795 67.7828 88.5955C68.1208 89.0115 68.6018 89.2195 69.2258 89.2195ZM77.3987 84.4225L76.7097 84.4875C76.0597 84.5482 75.5874 84.7518 75.2927 85.0985C75.0067 85.4452 74.8637 85.8742 74.8637 86.3855V89.9995H73.8107V83.6685H74.8377V84.7735C75.193 84.0368 75.8907 83.6252 76.9307 83.5385L77.3077 83.5125L77.3987 84.4225ZM78.3937 83.6685H79.4467V89.9995H78.3937V83.6685ZM79.5637 80.9255V82.1085H78.2897V80.9255H79.5637ZM84.6002 83.5125C86.1169 83.5125 86.8752 84.3488 86.8752 86.0215V89.9995H85.8222V86.0865C85.8222 85.4972 85.7052 85.0682 85.4712 84.7995C85.2459 84.5308 84.8819 84.3965 84.3792 84.3965C83.7985 84.3965 83.3349 84.5742 82.9882 84.9295C82.6415 85.2848 82.4682 85.7658 82.4682 86.3725V89.9995H81.4152V83.6685H82.4552V84.7085C82.6632 84.3185 82.9535 84.0238 83.3262 83.8245C83.6989 83.6165 84.1235 83.5125 84.6002 83.5125ZM94.4719 83.6685V89.5705C94.4719 90.5152 94.2292 91.2258 93.7439 91.7025C93.2585 92.1878 92.5392 92.4305 91.5859 92.4305C90.4765 92.4305 89.5449 92.1445 88.7909 91.5725L89.1419 90.7925C89.5665 91.0698 89.9652 91.2692 90.3379 91.3905C90.7105 91.5118 91.1265 91.5725 91.5859 91.5725C92.1925 91.5725 92.6519 91.4078 92.9639 91.0785C93.2759 90.7578 93.4319 90.2855 93.4319 89.6615V88.5435C93.2499 88.9508 92.9682 89.2628 92.5869 89.4795C92.2142 89.6962 91.7722 89.8045 91.2609 89.8045C90.7062 89.8045 90.2122 89.6745 89.7789 89.4145C89.3542 89.1545 89.0205 88.7862 88.7779 88.3095C88.5439 87.8328 88.4269 87.2825 88.4269 86.6585C88.4269 86.0345 88.5439 85.4842 88.7779 85.0075C89.0205 84.5308 89.3542 84.1625 89.7789 83.9025C90.2122 83.6425 90.7062 83.5125 91.2609 83.5125C91.7635 83.5125 92.2012 83.6208 92.5739 83.8375C92.9465 84.0542 93.2282 84.3618 93.4189 84.7605V83.6685H94.4719ZM91.4689 88.9335C92.0755 88.9335 92.5522 88.7342 92.8989 88.3355C93.2455 87.9282 93.4189 87.3692 93.4189 86.6585C93.4189 85.9565 93.2455 85.4062 92.8989 85.0075C92.5609 84.6002 92.0842 84.3965 91.4689 84.3965C90.8535 84.3965 90.3682 84.6002 90.0129 85.0075C89.6662 85.4062 89.4929 85.9565 89.4929 86.6585C89.4929 87.3692 89.6662 87.9282 90.0129 88.3355C90.3682 88.7342 90.8535 88.9335 91.4689 88.9335ZM2.40576 115.856C1.98976 115.856 1.59976 115.756 1.23576 115.557C0.871756 115.349 0.581423 115.071 0.364756 114.725C0.156756 114.369 0.0527559 113.979 0.0527559 113.555C0.0527559 113.156 0.152423 112.779 0.351756 112.424C0.559756 112.068 0.841423 111.782 1.19676 111.566C1.56076 111.349 1.96376 111.241 2.40576 111.241C2.82176 111.241 3.20742 111.345 3.56276 111.553C3.92676 111.752 4.21709 112.029 4.43376 112.385C4.65042 112.731 4.75876 113.121 4.75876 113.555C4.75876 113.971 4.65042 114.356 4.43376 114.712C4.22576 115.058 3.93976 115.336 3.57576 115.544C3.22042 115.752 2.83042 115.856 2.40576 115.856ZM17.5147 117H16.3447L14.7847 114.062C14.594 113.706 14.3687 113.464 14.1087 113.334C13.8574 113.195 13.5107 113.126 13.0687 113.126H11.3527V117H10.2997V107.835H14.0697C15.0664 107.835 15.8247 108.056 16.3447 108.498C16.8734 108.94 17.1377 109.59 17.1377 110.448C17.1377 111.158 16.934 111.735 16.5267 112.177C16.128 112.61 15.556 112.883 14.8107 112.996C15.0447 113.065 15.2484 113.182 15.4217 113.347C15.6037 113.511 15.7684 113.732 15.9157 114.01L17.5147 117ZM13.9787 112.242C14.6894 112.242 15.218 112.094 15.5647 111.8C15.92 111.505 16.0977 111.059 16.0977 110.461C16.0977 109.871 15.9244 109.434 15.5777 109.148C15.231 108.862 14.698 108.719 13.9787 108.719H11.3527V112.242H13.9787ZM24.3598 113.997H19.7318C19.7665 114.733 19.9658 115.292 20.3298 115.674C20.6938 116.046 21.2095 116.233 21.8768 116.233C22.6135 116.233 23.2895 115.981 23.9048 115.479L24.2558 116.246C23.9785 116.506 23.6231 116.714 23.1898 116.87C22.7565 117.017 22.3145 117.091 21.8638 117.091C20.8758 117.091 20.0958 116.8 19.5238 116.22C18.9605 115.639 18.6788 114.837 18.6788 113.815C18.6788 113.165 18.8045 112.593 19.0558 112.099C19.3071 111.596 19.6581 111.206 20.1088 110.929C20.5681 110.651 21.0881 110.513 21.6688 110.513C22.5095 110.513 23.1681 110.79 23.6448 111.345C24.1215 111.891 24.3598 112.645 24.3598 113.607V113.997ZM21.6818 111.332C21.1271 111.332 20.6808 111.505 20.3428 111.852C20.0135 112.198 19.8185 112.688 19.7578 113.321H23.4368C23.4195 112.679 23.2591 112.19 22.9558 111.852C22.6525 111.505 22.2278 111.332 21.6818 111.332ZM29.0963 110.513C29.6509 110.513 30.1406 110.651 30.5653 110.929C30.9899 111.206 31.3193 111.596 31.5533 112.099C31.7873 112.593 31.9043 113.169 31.9043 113.828C31.9043 114.486 31.7873 115.063 31.5533 115.557C31.3193 116.042 30.9899 116.419 30.5653 116.688C30.1493 116.956 29.6596 117.091 29.0963 117.091C28.6023 117.091 28.1689 116.982 27.7963 116.766C27.4323 116.549 27.1549 116.241 26.9643 115.843V119.34H25.9113V110.669H26.9643V111.761C27.1549 111.362 27.4323 111.054 27.7963 110.838C28.1689 110.621 28.6023 110.513 29.0963 110.513ZM28.8883 116.22C29.5036 116.22 29.9803 116.012 30.3183 115.596C30.6563 115.18 30.8253 114.59 30.8253 113.828C30.8253 113.065 30.6563 112.471 30.3183 112.047C29.9803 111.613 29.5036 111.397 28.8883 111.397C28.2729 111.397 27.7963 111.605 27.4583 112.021C27.1289 112.437 26.9643 113.03 26.9643 113.802C26.9643 114.573 27.1289 115.171 27.4583 115.596C27.7963 116.012 28.2729 116.22 28.8883 116.22ZM33.4777 107.835H34.5307V117H33.4777V107.835ZM39.0732 110.513C39.8792 110.513 40.4772 110.721 40.8672 111.137C41.2658 111.544 41.4652 112.168 41.4652 113.009V117H40.4382V115.921C40.2735 116.293 40.0222 116.584 39.6842 116.792C39.3462 116.991 38.9562 117.091 38.5142 117.091C38.1068 117.091 37.7298 117.008 37.3832 116.844C37.0452 116.679 36.7765 116.449 36.5772 116.155C36.3778 115.86 36.2782 115.535 36.2782 115.18C36.2782 114.703 36.3995 114.335 36.6422 114.075C36.8848 113.806 37.2835 113.615 37.8382 113.503C38.3928 113.381 39.1642 113.321 40.1522 113.321H40.4382V112.892C40.4382 112.363 40.3298 111.982 40.1132 111.748C39.8965 111.505 39.5455 111.384 39.0602 111.384C38.3322 111.384 37.6085 111.609 36.8892 112.06L36.5382 111.293C36.8675 111.059 37.2618 110.872 37.7212 110.734C38.1892 110.586 38.6398 110.513 39.0732 110.513ZM38.6572 116.259C39.1772 116.259 39.6018 116.085 39.9312 115.739C40.2692 115.383 40.4382 114.928 40.4382 114.374V113.997H40.2042C39.4415 113.997 38.8608 114.031 38.4622 114.101C38.0635 114.161 37.7775 114.27 37.6042 114.426C37.4395 114.573 37.3572 114.794 37.3572 115.089C37.3572 115.427 37.4785 115.708 37.7212 115.934C37.9725 116.15 38.2845 116.259 38.6572 116.259ZM46.0707 117.091C45.4467 117.091 44.9051 116.956 44.4457 116.688C43.9864 116.419 43.6311 116.042 43.3797 115.557C43.1371 115.063 43.0157 114.486 43.0157 113.828C43.0157 113.169 43.1414 112.593 43.3927 112.099C43.6527 111.596 44.0124 111.206 44.4717 110.929C44.9397 110.651 45.4857 110.513 46.1097 110.513C46.5344 110.513 46.9504 110.591 47.3577 110.747C47.7651 110.894 48.0944 111.093 48.3457 111.345L47.9947 112.125C47.3967 111.639 46.7901 111.397 46.1747 111.397C45.5247 111.397 45.0177 111.609 44.6537 112.034C44.2897 112.458 44.1077 113.056 44.1077 113.828C44.1077 114.59 44.2897 115.18 44.6537 115.596C45.0177 116.012 45.5247 116.22 46.1747 116.22C46.7901 116.22 47.3967 115.977 47.9947 115.492L48.3457 116.272C48.0771 116.523 47.7391 116.722 47.3317 116.87C46.9244 117.017 46.5041 117.091 46.0707 117.091ZM49.6134 110.669H50.6664V117H49.6134V110.669ZM50.7834 107.926V109.109H49.5094V107.926H50.7834ZM55.8199 110.513C57.3366 110.513 58.0949 111.349 58.0949 113.022V117H57.0419V113.087C57.0419 112.497 56.9249 112.068 56.6909 111.8C56.4656 111.531 56.1016 111.397 55.5989 111.397C55.0182 111.397 54.5546 111.574 54.2079 111.93C53.8612 112.285 53.6879 112.766 53.6879 113.373V117H52.6349V110.669H53.6749V111.709C53.8829 111.319 54.1732 111.024 54.5459 110.825C54.9186 110.617 55.3432 110.513 55.8199 110.513ZM65.6916 110.669V116.571C65.6916 117.515 65.4489 118.226 64.9636 118.703C64.4783 119.188 63.7589 119.431 62.8056 119.431C61.6963 119.431 60.7646 119.145 60.0106 118.573L60.3616 117.793C60.7863 118.07 61.1849 118.269 61.5576 118.391C61.9303 118.512 62.3463 118.573 62.8056 118.573C63.4123 118.573 63.8716 118.408 64.1836 118.079C64.4956 117.758 64.6516 117.286 64.6516 116.662V115.544C64.4696 115.951 64.1879 116.263 63.8066 116.48C63.4339 116.696 62.9919 116.805 62.4806 116.805C61.9259 116.805 61.4319 116.675 60.9986 116.415C60.5739 116.155 60.2403 115.786 59.9976 115.31C59.7636 114.833 59.6466 114.283 59.6466 113.659C59.6466 113.035 59.7636 112.484 59.9976 112.008C60.2403 111.531 60.5739 111.163 60.9986 110.903C61.4319 110.643 61.9259 110.513 62.4806 110.513C62.9833 110.513 63.4209 110.621 63.7936 110.838C64.1663 111.054 64.4479 111.362 64.6386 111.761V110.669H65.6916ZM62.6886 115.934C63.2953 115.934 63.7719 115.734 64.1186 115.336C64.4653 114.928 64.6386 114.369 64.6386 113.659C64.6386 112.957 64.4653 112.406 64.1186 112.008C63.7806 111.6 63.3039 111.397 62.6886 111.397C62.0733 111.397 61.5879 111.6 61.2326 112.008C60.8859 112.406 60.7126 112.957 60.7126 113.659C60.7126 114.369 60.8859 114.928 61.2326 115.336C61.5879 115.734 62.0733 115.934 62.6886 115.934ZM74.1773 110.513C74.732 110.513 75.2217 110.651 75.6463 110.929C76.071 111.206 76.4003 111.596 76.6343 112.099C76.8683 112.593 76.9853 113.169 76.9853 113.828C76.9853 114.486 76.8683 115.063 76.6343 115.557C76.4003 116.042 76.071 116.419 75.6463 116.688C75.2303 116.956 74.7407 117.091 74.1773 117.091C73.6833 117.091 73.25 116.982 72.8773 116.766C72.5133 116.549 72.236 116.241 72.0453 115.843V119.34H70.9923V110.669H72.0453V111.761C72.236 111.362 72.5133 111.054 72.8773 110.838C73.25 110.621 73.6833 110.513 74.1773 110.513ZM73.9693 116.22C74.5847 116.22 75.0613 116.012 75.3993 115.596C75.7373 115.18 75.9063 114.59 75.9063 113.828C75.9063 113.065 75.7373 112.471 75.3993 112.047C75.0613 111.613 74.5847 111.397 73.9693 111.397C73.354 111.397 72.8773 111.605 72.5393 112.021C72.21 112.437 72.0453 113.03 72.0453 113.802C72.0453 114.573 72.21 115.171 72.5393 115.596C72.8773 116.012 73.354 116.22 73.9693 116.22ZM78.5587 107.835H79.6117V117H78.5587V107.835ZM86.9102 110.669V117H85.8832V115.921C85.6839 116.302 85.4022 116.592 85.0382 116.792C84.6829 116.991 84.2799 117.091 83.8292 117.091C83.0752 117.091 82.5076 116.883 82.1262 116.467C81.7449 116.042 81.5542 115.418 81.5542 114.595V110.669H82.6072V114.569C82.6072 115.132 82.7199 115.548 82.9452 115.817C83.1706 116.077 83.5259 116.207 84.0112 116.207C84.5659 116.207 85.0122 116.029 85.3502 115.674C85.6882 115.31 85.8572 114.833 85.8572 114.244V110.669H86.9102ZM95.9133 110.513C97.3173 110.513 98.0193 111.349 98.0193 113.022V117H96.9663V113.074C96.9663 112.493 96.8623 112.068 96.6543 111.8C96.455 111.531 96.13 111.397 95.6793 111.397C95.1507 111.397 94.7347 111.574 94.4313 111.93C94.128 112.285 93.9763 112.77 93.9763 113.386V117H92.9233V113.074C92.9233 112.484 92.8193 112.06 92.6113 111.8C92.4033 111.531 92.074 111.397 91.6233 111.397C91.0947 111.397 90.6787 111.574 90.3753 111.93C90.072 112.285 89.9203 112.77 89.9203 113.386V117H88.8673V110.669H89.9073V111.67C90.098 111.297 90.3623 111.011 90.7003 110.812C91.0383 110.612 91.4283 110.513 91.8703 110.513C92.8497 110.513 93.4953 110.929 93.8073 111.761C93.9893 111.371 94.2667 111.067 94.6393 110.851C95.012 110.625 95.4367 110.513 95.9133 110.513ZM103.123 110.513C103.677 110.513 104.167 110.647 104.592 110.916C105.016 111.184 105.346 111.566 105.58 112.06C105.814 112.554 105.931 113.126 105.931 113.776C105.931 114.434 105.814 115.015 105.58 115.518C105.346 116.012 105.016 116.397 104.592 116.675C104.167 116.952 103.677 117.091 103.123 117.091C102.629 117.091 102.195 116.982 101.823 116.766C101.459 116.549 101.181 116.241 100.991 115.843V117H99.9376V107.835H100.991V111.761C101.181 111.362 101.459 111.054 101.823 110.838C102.195 110.621 102.629 110.513 103.123 110.513ZM102.915 116.22C103.53 116.22 104.007 116.007 104.345 115.583C104.683 115.149 104.852 114.547 104.852 113.776C104.852 113.022 104.683 112.437 104.345 112.021C104.007 111.605 103.53 111.397 102.915 111.397C102.299 111.397 101.823 111.605 101.485 112.021C101.155 112.437 100.991 113.03 100.991 113.802C100.991 114.573 101.155 115.171 101.485 115.596C101.823 116.012 102.299 116.22 102.915 116.22ZM107.504 110.669H108.557V117H107.504V110.669ZM108.674 107.926V109.109H107.4V107.926H108.674ZM113.711 110.513C115.227 110.513 115.986 111.349 115.986 113.022V117H114.933V113.087C114.933 112.497 114.816 112.068 114.582 111.8C114.356 111.531 113.992 111.397 113.49 111.397C112.909 111.397 112.445 111.574 112.099 111.93C111.752 112.285 111.579 112.766 111.579 113.373V117H110.526V110.669H111.566V111.709C111.774 111.319 112.064 111.024 112.437 110.825C112.809 110.617 113.234 110.513 113.711 110.513ZM123.582 110.669V116.571C123.582 117.515 123.34 118.226 122.854 118.703C122.369 119.188 121.65 119.431 120.696 119.431C119.587 119.431 118.655 119.145 117.901 118.573L118.252 117.793C118.677 118.07 119.076 118.269 119.448 118.391C119.821 118.512 120.237 118.573 120.696 118.573C121.303 118.573 121.762 118.408 122.074 118.079C122.386 117.758 122.542 117.286 122.542 116.662V115.544C122.36 115.951 122.079 116.263 121.697 116.48C121.325 116.696 120.883 116.805 120.371 116.805C119.817 116.805 119.323 116.675 118.889 116.415C118.465 116.155 118.131 115.786 117.888 115.31C117.654 114.833 117.537 114.283 117.537 113.659C117.537 113.035 117.654 112.484 117.888 112.008C118.131 111.531 118.465 111.163 118.889 110.903C119.323 110.643 119.817 110.513 120.371 110.513C120.874 110.513 121.312 110.621 121.684 110.838C122.057 111.054 122.339 111.362 122.529 111.761V110.669H123.582ZM120.579 115.934C121.186 115.934 121.663 115.734 122.009 115.336C122.356 114.928 122.529 114.369 122.529 113.659C122.529 112.957 122.356 112.406 122.009 112.008C121.671 111.6 121.195 111.397 120.579 111.397C119.964 111.397 119.479 111.6 119.123 112.008C118.777 112.406 118.603 112.957 118.603 113.659C118.603 114.369 118.777 114.928 119.123 115.336C119.479 115.734 119.964 115.934 120.579 115.934ZM2.40576 141.856C1.98976 141.856 1.59976 141.756 1.23576 141.557C0.871756 141.349 0.581423 141.071 0.364756 140.725C0.156756 140.369 0.0527559 139.979 0.0527559 139.555C0.0527559 139.156 0.152423 138.779 0.351756 138.424C0.559756 138.068 0.841423 137.782 1.19676 137.566C1.56076 137.349 1.96376 137.241 2.40576 137.241C2.82176 137.241 3.20742 137.345 3.56276 137.553C3.92676 137.752 4.21709 138.029 4.43376 138.385C4.65042 138.731 4.75876 139.121 4.75876 139.555C4.75876 139.971 4.65042 140.356 4.43376 140.712C4.22576 141.058 3.93976 141.336 3.57576 141.544C3.22042 141.752 2.83042 141.856 2.40576 141.856ZM17.5147 143H16.3447L14.7847 140.062C14.594 139.706 14.3687 139.464 14.1087 139.334C13.8574 139.195 13.5107 139.126 13.0687 139.126H11.3527V143H10.2997V133.835H14.0697C15.0664 133.835 15.8247 134.056 16.3447 134.498C16.8734 134.94 17.1377 135.59 17.1377 136.448C17.1377 137.158 16.934 137.735 16.5267 138.177C16.128 138.61 15.556 138.883 14.8107 138.996C15.0447 139.065 15.2484 139.182 15.4217 139.347C15.6037 139.511 15.7684 139.732 15.9157 140.01L17.5147 143ZM13.9787 138.242C14.6894 138.242 15.218 138.094 15.5647 137.8C15.92 137.505 16.0977 137.059 16.0977 136.461C16.0977 135.871 15.9244 135.434 15.5777 135.148C15.231 134.862 14.698 134.719 13.9787 134.719H11.3527V138.242H13.9787ZM24.3598 139.997H19.7318C19.7665 140.733 19.9658 141.292 20.3298 141.674C20.6938 142.046 21.2095 142.233 21.8768 142.233C22.6135 142.233 23.2895 141.981 23.9048 141.479L24.2558 142.246C23.9785 142.506 23.6231 142.714 23.1898 142.87C22.7565 143.017 22.3145 143.091 21.8638 143.091C20.8758 143.091 20.0958 142.8 19.5238 142.22C18.9605 141.639 18.6788 140.837 18.6788 139.815C18.6788 139.165 18.8045 138.593 19.0558 138.099C19.3071 137.596 19.6581 137.206 20.1088 136.929C20.5681 136.651 21.0881 136.513 21.6688 136.513C22.5095 136.513 23.1681 136.79 23.6448 137.345C24.1215 137.891 24.3598 138.645 24.3598 139.607V139.997ZM21.6818 137.332C21.1271 137.332 20.6808 137.505 20.3428 137.852C20.0135 138.198 19.8185 138.688 19.7578 139.321H23.4368C23.4195 138.679 23.2591 138.19 22.9558 137.852C22.6525 137.505 22.2278 137.332 21.6818 137.332ZM29.0963 136.513C29.6509 136.513 30.1406 136.651 30.5653 136.929C30.9899 137.206 31.3193 137.596 31.5533 138.099C31.7873 138.593 31.9043 139.169 31.9043 139.828C31.9043 140.486 31.7873 141.063 31.5533 141.557C31.3193 142.042 30.9899 142.419 30.5653 142.688C30.1493 142.956 29.6596 143.091 29.0963 143.091C28.6023 143.091 28.1689 142.982 27.7963 142.766C27.4323 142.549 27.1549 142.241 26.9643 141.843V145.34H25.9113V136.669H26.9643V137.761C27.1549 137.362 27.4323 137.054 27.7963 136.838C28.1689 136.621 28.6023 136.513 29.0963 136.513ZM28.8883 142.22C29.5036 142.22 29.9803 142.012 30.3183 141.596C30.6563 141.18 30.8253 140.59 30.8253 139.828C30.8253 139.065 30.6563 138.471 30.3183 138.047C29.9803 137.613 29.5036 137.397 28.8883 137.397C28.2729 137.397 27.7963 137.605 27.4583 138.021C27.1289 138.437 26.9643 139.03 26.9643 139.802C26.9643 140.573 27.1289 141.171 27.4583 141.596C27.7963 142.012 28.2729 142.22 28.8883 142.22ZM33.4777 133.835H34.5307V143H33.4777V133.835ZM39.0732 136.513C39.8792 136.513 40.4772 136.721 40.8672 137.137C41.2658 137.544 41.4652 138.168 41.4652 139.009V143H40.4382V141.921C40.2735 142.293 40.0222 142.584 39.6842 142.792C39.3462 142.991 38.9562 143.091 38.5142 143.091C38.1068 143.091 37.7298 143.008 37.3832 142.844C37.0452 142.679 36.7765 142.449 36.5772 142.155C36.3778 141.86 36.2782 141.535 36.2782 141.18C36.2782 140.703 36.3995 140.335 36.6422 140.075C36.8848 139.806 37.2835 139.615 37.8382 139.503C38.3928 139.381 39.1642 139.321 40.1522 139.321H40.4382V138.892C40.4382 138.363 40.3298 137.982 40.1132 137.748C39.8965 137.505 39.5455 137.384 39.0602 137.384C38.3322 137.384 37.6085 137.609 36.8892 138.06L36.5382 137.293C36.8675 137.059 37.2618 136.872 37.7212 136.734C38.1892 136.586 38.6398 136.513 39.0732 136.513ZM38.6572 142.259C39.1772 142.259 39.6018 142.085 39.9312 141.739C40.2692 141.383 40.4382 140.928 40.4382 140.374V139.997H40.2042C39.4415 139.997 38.8608 140.031 38.4622 140.101C38.0635 140.161 37.7775 140.27 37.6042 140.426C37.4395 140.573 37.3572 140.794 37.3572 141.089C37.3572 141.427 37.4785 141.708 37.7212 141.934C37.9725 142.15 38.2845 142.259 38.6572 142.259ZM46.0707 143.091C45.4467 143.091 44.9051 142.956 44.4457 142.688C43.9864 142.419 43.6311 142.042 43.3797 141.557C43.1371 141.063 43.0157 140.486 43.0157 139.828C43.0157 139.169 43.1414 138.593 43.3927 138.099C43.6527 137.596 44.0124 137.206 44.4717 136.929C44.9397 136.651 45.4857 136.513 46.1097 136.513C46.5344 136.513 46.9504 136.591 47.3577 136.747C47.7651 136.894 48.0944 137.093 48.3457 137.345L47.9947 138.125C47.3967 137.639 46.7901 137.397 46.1747 137.397C45.5247 137.397 45.0177 137.609 44.6537 138.034C44.2897 138.458 44.1077 139.056 44.1077 139.828C44.1077 140.59 44.2897 141.18 44.6537 141.596C45.0177 142.012 45.5247 142.22 46.1747 142.22C46.7901 142.22 47.3967 141.977 47.9947 141.492L48.3457 142.272C48.0771 142.523 47.7391 142.722 47.3317 142.87C46.9244 143.017 46.5041 143.091 46.0707 143.091ZM49.6134 136.669H50.6664V143H49.6134V136.669ZM50.7834 133.926V135.109H49.5094V133.926H50.7834ZM55.8199 136.513C57.3366 136.513 58.0949 137.349 58.0949 139.022V143H57.0419V139.087C57.0419 138.497 56.9249 138.068 56.6909 137.8C56.4656 137.531 56.1016 137.397 55.5989 137.397C55.0182 137.397 54.5546 137.574 54.2079 137.93C53.8612 138.285 53.6879 138.766 53.6879 139.373V143H52.6349V136.669H53.6749V137.709C53.8829 137.319 54.1732 137.024 54.5459 136.825C54.9186 136.617 55.3432 136.513 55.8199 136.513ZM65.6916 136.669V142.571C65.6916 143.515 65.4489 144.226 64.9636 144.703C64.4783 145.188 63.7589 145.431 62.8056 145.431C61.6963 145.431 60.7646 145.145 60.0106 144.573L60.3616 143.793C60.7863 144.07 61.1849 144.269 61.5576 144.391C61.9303 144.512 62.3463 144.573 62.8056 144.573C63.4123 144.573 63.8716 144.408 64.1836 144.079C64.4956 143.758 64.6516 143.286 64.6516 142.662V141.544C64.4696 141.951 64.1879 142.263 63.8066 142.48C63.4339 142.696 62.9919 142.805 62.4806 142.805C61.9259 142.805 61.4319 142.675 60.9986 142.415C60.5739 142.155 60.2403 141.786 59.9976 141.31C59.7636 140.833 59.6466 140.283 59.6466 139.659C59.6466 139.035 59.7636 138.484 59.9976 138.008C60.2403 137.531 60.5739 137.163 60.9986 136.903C61.4319 136.643 61.9259 136.513 62.4806 136.513C62.9833 136.513 63.4209 136.621 63.7936 136.838C64.1663 137.054 64.4479 137.362 64.6386 137.761V136.669H65.6916ZM62.6886 141.934C63.2953 141.934 63.7719 141.734 64.1186 141.336C64.4653 140.928 64.6386 140.369 64.6386 139.659C64.6386 138.957 64.4653 138.406 64.1186 138.008C63.7806 137.6 63.3039 137.397 62.6886 137.397C62.0733 137.397 61.5879 137.6 61.2326 138.008C60.8859 138.406 60.7126 138.957 60.7126 139.659C60.7126 140.369 60.8859 140.928 61.2326 141.336C61.5879 141.734 62.0733 141.934 62.6886 141.934ZM73.1373 143.091C72.0713 143.091 71.2263 142.818 70.6023 142.272L70.9533 141.492C71.2913 141.76 71.6337 141.955 71.9803 142.077C72.3357 142.189 72.7343 142.246 73.1763 142.246C73.6443 142.246 73.9997 142.168 74.2423 142.012C74.4937 141.847 74.6193 141.613 74.6193 141.31C74.6193 141.058 74.537 140.859 74.3723 140.712C74.2077 140.564 73.9347 140.447 73.5533 140.361L72.4873 140.114C71.95 139.992 71.5383 139.784 71.2523 139.49C70.9663 139.195 70.8233 138.831 70.8233 138.398C70.8233 137.834 71.0443 137.379 71.4863 137.033C71.9283 136.686 72.5177 136.513 73.2543 136.513C73.6963 136.513 74.1167 136.586 74.5153 136.734C74.914 136.872 75.2477 137.076 75.5163 137.345L75.1653 138.112C74.5847 137.618 73.9477 137.371 73.2543 137.371C72.8123 137.371 72.4657 137.457 72.2143 137.631C71.9717 137.795 71.8503 138.029 71.8503 138.333C71.8503 138.584 71.924 138.788 72.0713 138.944C72.2273 139.091 72.4743 139.204 72.8123 139.282L73.8913 139.542C74.4807 139.68 74.9183 139.893 75.2043 140.179C75.4903 140.456 75.6333 140.82 75.6333 141.271C75.6333 141.825 75.408 142.267 74.9573 142.597C74.5153 142.926 73.9087 143.091 73.1373 143.091ZM79.8644 143.091C79.2664 143.091 78.7378 142.956 78.2784 142.688C77.8278 142.419 77.4768 142.038 77.2254 141.544C76.9828 141.041 76.8614 140.46 76.8614 139.802C76.8614 139.143 76.9828 138.567 77.2254 138.073C77.4768 137.57 77.8278 137.184 78.2784 136.916C78.7378 136.647 79.2664 136.513 79.8644 136.513C80.4624 136.513 80.9911 136.647 81.4504 136.916C81.9098 137.184 82.2608 137.57 82.5034 138.073C82.7548 138.567 82.8804 139.143 82.8804 139.802C82.8804 140.46 82.7548 141.041 82.5034 141.544C82.2608 142.038 81.9098 142.419 81.4504 142.688C80.9911 142.956 80.4624 143.091 79.8644 143.091ZM79.8644 142.22C80.4884 142.22 80.9651 142.016 81.2944 141.609C81.6324 141.193 81.8014 140.59 81.8014 139.802C81.8014 139.03 81.6324 138.437 81.2944 138.021C80.9564 137.596 80.4798 137.384 79.8644 137.384C79.2491 137.384 78.7724 137.596 78.4344 138.021C78.0964 138.437 77.9274 139.03 77.9274 139.802C77.9274 140.582 78.0921 141.18 78.4214 141.596C78.7594 142.012 79.2404 142.22 79.8644 142.22ZM87.1274 143.091C86.5034 143.091 85.9617 142.956 85.5024 142.688C85.043 142.419 84.6877 142.042 84.4364 141.557C84.1937 141.063 84.0724 140.486 84.0724 139.828C84.0724 139.169 84.198 138.593 84.4494 138.099C84.7094 137.596 85.069 137.206 85.5284 136.929C85.9964 136.651 86.5424 136.513 87.1664 136.513C87.591 136.513 88.007 136.591 88.4144 136.747C88.8217 136.894 89.151 137.093 89.4024 137.345L89.0514 138.125C88.4534 137.639 87.8467 137.397 87.2314 137.397C86.5814 137.397 86.0744 137.609 85.7104 138.034C85.3464 138.458 85.1644 139.056 85.1644 139.828C85.1644 140.59 85.3464 141.18 85.7104 141.596C86.0744 142.012 86.5814 142.22 87.2314 142.22C87.8467 142.22 88.4534 141.977 89.0514 141.492L89.4024 142.272C89.1337 142.523 88.7957 142.722 88.3884 142.87C87.981 143.017 87.5607 143.091 87.1274 143.091ZM94.9471 143L91.7231 139.971V143H90.6701V133.835H91.7231V139.542L94.6741 136.682H96.0131L92.8671 139.711L96.3121 143H94.9471ZM102.36 139.997H97.7318C97.7665 140.733 97.9658 141.292 98.3298 141.674C98.6938 142.046 99.2095 142.233 99.8768 142.233C100.613 142.233 101.289 141.981 101.905 141.479L102.256 142.246C101.978 142.506 101.623 142.714 101.19 142.87C100.756 143.017 100.314 143.091 99.8638 143.091C98.8758 143.091 98.0958 142.8 97.5238 142.22C96.9605 141.639 96.6788 140.837 96.6788 139.815C96.6788 139.165 96.8045 138.593 97.0558 138.099C97.3071 137.596 97.6581 137.206 98.1088 136.929C98.5681 136.651 99.0881 136.513 99.6688 136.513C100.509 136.513 101.168 136.79 101.645 137.345C102.121 137.891 102.36 138.645 102.36 139.607V139.997ZM99.6818 137.332C99.1271 137.332 98.6808 137.505 98.3428 137.852C98.0135 138.198 97.8185 138.688 97.7578 139.321H101.437C101.419 138.679 101.259 138.19 100.956 137.852C100.652 137.505 100.228 137.332 99.6818 137.332ZM106.655 142.246C106.846 142.246 107.037 142.233 107.227 142.207L107.175 143.039C106.976 143.073 106.759 143.091 106.525 143.091C105.763 143.091 105.186 142.891 104.796 142.493C104.415 142.094 104.224 141.539 104.224 140.829V137.501H102.989V136.669H104.224V134.745H105.277V136.669H107.071V137.501H105.277V140.751C105.277 141.747 105.737 142.246 106.655 142.246ZM110.436 143.091C109.37 143.091 108.525 142.818 107.901 142.272L108.252 141.492C108.59 141.76 108.932 141.955 109.279 142.077C109.634 142.189 110.033 142.246 110.475 142.246C110.943 142.246 111.298 142.168 111.541 142.012C111.792 141.847 111.918 141.613 111.918 141.31C111.918 141.058 111.836 140.859 111.671 140.712C111.506 140.564 111.233 140.447 110.852 140.361L109.786 140.114C109.249 139.992 108.837 139.784 108.551 139.49C108.265 139.195 108.122 138.831 108.122 138.398C108.122 137.834 108.343 137.379 108.785 137.033C109.227 136.686 109.816 136.513 110.553 136.513C110.995 136.513 111.415 136.586 111.814 136.734C112.213 136.872 112.546 137.076 112.815 137.345L112.464 138.112C111.883 137.618 111.246 137.371 110.553 137.371C110.111 137.371 109.764 137.457 109.513 137.631C109.27 137.795 109.149 138.029 109.149 138.333C109.149 138.584 109.223 138.788 109.37 138.944C109.526 139.091 109.773 139.204 110.111 139.282L111.19 139.542C111.779 139.68 112.217 139.893 112.503 140.179C112.789 140.456 112.932 140.82 112.932 141.271C112.932 141.825 112.707 142.267 112.256 142.597C111.814 142.926 111.207 143.091 110.436 143.091ZM120.463 136.513C121.269 136.513 121.867 136.721 122.257 137.137C122.655 137.544 122.855 138.168 122.855 139.009V143H121.828V141.921C121.663 142.293 121.412 142.584 121.074 142.792C120.736 142.991 120.346 143.091 119.904 143.091C119.496 143.091 119.119 143.008 118.773 142.844C118.435 142.679 118.166 142.449 117.967 142.155C117.767 141.86 117.668 141.535 117.668 141.18C117.668 140.703 117.789 140.335 118.032 140.075C118.274 139.806 118.673 139.615 119.228 139.503C119.782 139.381 120.554 139.321 121.542 139.321H121.828V138.892C121.828 138.363 121.719 137.982 121.503 137.748C121.286 137.505 120.935 137.384 120.45 137.384C119.722 137.384 118.998 137.609 118.279 138.06L117.928 137.293C118.257 137.059 118.651 136.872 119.111 136.734C119.579 136.586 120.029 136.513 120.463 136.513ZM120.047 142.259C120.567 142.259 120.991 142.085 121.321 141.739C121.659 141.383 121.828 140.928 121.828 140.374V139.997H121.594C120.831 139.997 120.25 140.031 119.852 140.101C119.453 140.161 119.167 140.27 118.994 140.426C118.829 140.573 118.747 140.794 118.747 141.089C118.747 141.427 118.868 141.708 119.111 141.934C119.362 142.15 119.674 142.259 120.047 142.259ZM127.967 136.513C129.484 136.513 130.242 137.349 130.242 139.022V143H129.189V139.087C129.189 138.497 129.072 138.068 128.838 137.8C128.613 137.531 128.249 137.397 127.746 137.397C127.166 137.397 126.702 137.574 126.355 137.93C126.009 138.285 125.835 138.766 125.835 139.373V143H124.782V136.669H125.822V137.709C126.03 137.319 126.321 137.024 126.693 136.825C127.066 136.617 127.491 136.513 127.967 136.513ZM137.787 133.835V143H136.734V141.843C136.543 142.241 136.262 142.549 135.889 142.766C135.525 142.982 135.096 143.091 134.602 143.091C134.047 143.091 133.558 142.952 133.133 142.675C132.708 142.397 132.379 142.012 132.145 141.518C131.911 141.015 131.794 140.434 131.794 139.776C131.794 139.126 131.911 138.554 132.145 138.06C132.379 137.566 132.708 137.184 133.133 136.916C133.558 136.647 134.047 136.513 134.602 136.513C135.096 136.513 135.525 136.621 135.889 136.838C136.262 137.054 136.543 137.362 136.734 137.761V133.835H137.787ZM134.81 142.22C135.425 142.22 135.898 142.012 136.227 141.596C136.565 141.171 136.734 140.573 136.734 139.802C136.734 139.03 136.565 138.437 136.227 138.021C135.898 137.605 135.425 137.397 134.81 137.397C134.195 137.397 133.714 137.605 133.367 138.021C133.029 138.437 132.86 139.022 132.86 139.776C132.86 140.547 133.029 141.149 133.367 141.583C133.714 142.007 134.195 142.22 134.81 142.22ZM145.234 143.091C144.168 143.091 143.323 142.818 142.699 142.272L143.05 141.492C143.388 141.76 143.73 141.955 144.077 142.077C144.432 142.189 144.831 142.246 145.273 142.246C145.741 142.246 146.096 142.168 146.339 142.012C146.59 141.847 146.716 141.613 146.716 141.31C146.716 141.058 146.634 140.859 146.469 140.712C146.304 140.564 146.031 140.447 145.65 140.361L144.584 140.114C144.047 139.992 143.635 139.784 143.349 139.49C143.063 139.195 142.92 138.831 142.92 138.398C142.92 137.834 143.141 137.379 143.583 137.033C144.025 136.686 144.614 136.513 145.351 136.513C145.793 136.513 146.213 136.586 146.612 136.734C147.011 136.872 147.344 137.076 147.613 137.345L147.262 138.112C146.681 137.618 146.044 137.371 145.351 137.371C144.909 137.371 144.562 137.457 144.311 137.631C144.068 137.795 143.947 138.029 143.947 138.333C143.947 138.584 144.021 138.788 144.168 138.944C144.324 139.091 144.571 139.204 144.909 139.282L145.988 139.542C146.577 139.68 147.015 139.893 147.301 140.179C147.587 140.456 147.73 140.82 147.73 141.271C147.73 141.825 147.505 142.267 147.054 142.597C146.612 142.926 146.005 143.091 145.234 143.091ZM158.867 136.669L156.514 143H155.5L153.719 138.099L151.925 143H150.924L148.571 136.669H149.663L151.457 141.752L153.29 136.669H154.2L156.007 141.752L157.814 136.669H158.867ZM160.164 136.669H161.217V143H160.164V136.669ZM161.334 133.926V135.109H160.06V133.926H161.334ZM165.968 142.246C166.158 142.246 166.349 142.233 166.54 142.207L166.488 143.039C166.288 143.073 166.072 143.091 165.838 143.091C165.075 143.091 164.499 142.891 164.109 142.493C163.727 142.094 163.537 141.539 163.537 140.829V137.501H162.302V136.669H163.537V134.745H164.59V136.669H166.384V137.501H164.59V140.751C164.59 141.747 165.049 142.246 165.968 142.246ZM170.282 143.091C169.658 143.091 169.116 142.956 168.657 142.688C168.197 142.419 167.842 142.042 167.591 141.557C167.348 141.063 167.227 140.486 167.227 139.828C167.227 139.169 167.352 138.593 167.604 138.099C167.864 137.596 168.223 137.206 168.683 136.929C169.151 136.651 169.697 136.513 170.321 136.513C170.745 136.513 171.161 136.591 171.569 136.747C171.976 136.894 172.305 137.093 172.557 137.345L172.206 138.125C171.608 137.639 171.001 137.397 170.386 137.397C169.736 137.397 169.229 137.609 168.865 138.034C168.501 138.458 168.319 139.056 168.319 139.828C168.319 140.59 168.501 141.18 168.865 141.596C169.229 142.012 169.736 142.22 170.386 142.22C171.001 142.22 171.608 141.977 172.206 141.492L172.557 142.272C172.288 142.523 171.95 142.722 171.543 142.87C171.135 143.017 170.715 143.091 170.282 143.091ZM177.009 136.513C178.526 136.513 179.284 137.349 179.284 139.022V143H178.231V139.087C178.231 138.497 178.114 138.068 177.88 137.8C177.655 137.531 177.291 137.397 176.788 137.397C176.208 137.397 175.744 137.574 175.397 137.93C175.051 138.285 174.877 138.766 174.877 139.373V143H173.824V133.835H174.877V137.683C175.085 137.301 175.371 137.011 175.735 136.812C176.108 136.612 176.533 136.513 177.009 136.513ZM186.517 139.997H181.889C181.924 140.733 182.123 141.292 182.487 141.674C182.851 142.046 183.367 142.233 184.034 142.233C184.771 142.233 185.447 141.981 186.062 141.479L186.413 142.246C186.136 142.506 185.78 142.714 185.347 142.87C184.914 143.017 184.472 143.091 184.021 143.091C183.033 143.091 182.253 142.8 181.681 142.22C181.118 141.639 180.836 140.837 180.836 139.815C180.836 139.165 180.962 138.593 181.213 138.099C181.464 137.596 181.815 137.206 182.266 136.929C182.725 136.651 183.245 136.513 183.826 136.513C184.667 136.513 185.325 136.79 185.802 137.345C186.279 137.891 186.517 138.645 186.517 139.607V139.997ZM183.839 137.332C183.284 137.332 182.838 137.505 182.5 137.852C182.171 138.198 181.976 138.688 181.915 139.321H185.594C185.577 138.679 185.416 138.19 185.113 137.852C184.81 137.505 184.385 137.332 183.839 137.332ZM190.214 143.091C189.148 143.091 188.303 142.818 187.679 142.272L188.03 141.492C188.368 141.76 188.71 141.955 189.057 142.077C189.412 142.189 189.811 142.246 190.253 142.246C190.721 142.246 191.076 142.168 191.319 142.012C191.57 141.847 191.696 141.613 191.696 141.31C191.696 141.058 191.613 140.859 191.449 140.712C191.284 140.564 191.011 140.447 190.63 140.361L189.564 140.114C189.026 139.992 188.615 139.784 188.329 139.49C188.043 139.195 187.9 138.831 187.9 138.398C187.9 137.834 188.121 137.379 188.563 137.033C189.005 136.686 189.594 136.513 190.331 136.513C190.773 136.513 191.193 136.586 191.592 136.734C191.99 136.872 192.324 137.076 192.593 137.345L192.242 138.112C191.661 137.618 191.024 137.371 190.331 137.371C189.889 137.371 189.542 137.457 189.291 137.631C189.048 137.795 188.927 138.029 188.927 138.333C188.927 138.584 189 138.788 189.148 138.944C189.304 139.091 189.551 139.204 189.889 139.282L190.968 139.542C191.557 139.68 191.995 139.893 192.281 140.179C192.567 140.456 192.71 140.82 192.71 141.271C192.71 141.825 192.484 142.267 192.034 142.597C191.592 142.926 190.985 143.091 190.214 143.091ZM2.40576 168.856C1.98976 168.856 1.59976 168.756 1.23576 168.557C0.871756 168.349 0.581423 168.071 0.364756 167.725C0.156756 167.369 0.0527559 166.979 0.0527559 166.555C0.0527559 166.156 0.152423 165.779 0.351756 165.424C0.559756 165.068 0.841423 164.782 1.19676 164.566C1.56076 164.349 1.96376 164.241 2.40576 164.241C2.82176 164.241 3.20742 164.345 3.56276 164.553C3.92676 164.752 4.21709 165.029 4.43376 165.385C4.65042 165.731 4.75876 166.121 4.75876 166.555C4.75876 166.971 4.65042 167.356 4.43376 167.712C4.22576 168.058 3.93976 168.336 3.57576 168.544C3.22042 168.752 2.83042 168.856 2.40576 168.856ZM17.5147 170H16.3447L14.7847 167.062C14.594 166.706 14.3687 166.464 14.1087 166.334C13.8574 166.195 13.5107 166.126 13.0687 166.126H11.3527V170H10.2997V160.835H14.0697C15.0664 160.835 15.8247 161.056 16.3447 161.498C16.8734 161.94 17.1377 162.59 17.1377 163.448C17.1377 164.158 16.934 164.735 16.5267 165.177C16.128 165.61 15.556 165.883 14.8107 165.996C15.0447 166.065 15.2484 166.182 15.4217 166.347C15.6037 166.511 15.7684 166.732 15.9157 167.01L17.5147 170ZM13.9787 165.242C14.6894 165.242 15.218 165.094 15.5647 164.8C15.92 164.505 16.0977 164.059 16.0977 163.461C16.0977 162.871 15.9244 162.434 15.5777 162.148C15.231 161.862 14.698 161.719 13.9787 161.719H11.3527V165.242H13.9787ZM24.3598 166.997H19.7318C19.7665 167.733 19.9658 168.292 20.3298 168.674C20.6938 169.046 21.2095 169.233 21.8768 169.233C22.6135 169.233 23.2895 168.981 23.9048 168.479L24.2558 169.246C23.9785 169.506 23.6231 169.714 23.1898 169.87C22.7565 170.017 22.3145 170.091 21.8638 170.091C20.8758 170.091 20.0958 169.8 19.5238 169.22C18.9605 168.639 18.6788 167.837 18.6788 166.815C18.6788 166.165 18.8045 165.593 19.0558 165.099C19.3071 164.596 19.6581 164.206 20.1088 163.929C20.5681 163.651 21.0881 163.513 21.6688 163.513C22.5095 163.513 23.1681 163.79 23.6448 164.345C24.1215 164.891 24.3598 165.645 24.3598 166.607V166.997ZM21.6818 164.332C21.1271 164.332 20.6808 164.505 20.3428 164.852C20.0135 165.198 19.8185 165.688 19.7578 166.321H23.4368C23.4195 165.679 23.2591 165.19 22.9558 164.852C22.6525 164.505 22.2278 164.332 21.6818 164.332ZM29.0963 163.513C29.6509 163.513 30.1406 163.651 30.5653 163.929C30.9899 164.206 31.3193 164.596 31.5533 165.099C31.7873 165.593 31.9043 166.169 31.9043 166.828C31.9043 167.486 31.7873 168.063 31.5533 168.557C31.3193 169.042 30.9899 169.419 30.5653 169.688C30.1493 169.956 29.6596 170.091 29.0963 170.091C28.6023 170.091 28.1689 169.982 27.7963 169.766C27.4323 169.549 27.1549 169.241 26.9643 168.843V172.34H25.9113V163.669H26.9643V164.761C27.1549 164.362 27.4323 164.054 27.7963 163.838C28.1689 163.621 28.6023 163.513 29.0963 163.513ZM28.8883 169.22C29.5036 169.22 29.9803 169.012 30.3183 168.596C30.6563 168.18 30.8253 167.59 30.8253 166.828C30.8253 166.065 30.6563 165.471 30.3183 165.047C29.9803 164.613 29.5036 164.397 28.8883 164.397C28.2729 164.397 27.7963 164.605 27.4583 165.021C27.1289 165.437 26.9643 166.03 26.9643 166.802C26.9643 167.573 27.1289 168.171 27.4583 168.596C27.7963 169.012 28.2729 169.22 28.8883 169.22ZM33.4777 160.835H34.5307V170H33.4777V160.835ZM39.0732 163.513C39.8792 163.513 40.4772 163.721 40.8672 164.137C41.2658 164.544 41.4652 165.168 41.4652 166.009V170H40.4382V168.921C40.2735 169.293 40.0222 169.584 39.6842 169.792C39.3462 169.991 38.9562 170.091 38.5142 170.091C38.1068 170.091 37.7298 170.008 37.3832 169.844C37.0452 169.679 36.7765 169.449 36.5772 169.155C36.3778 168.86 36.2782 168.535 36.2782 168.18C36.2782 167.703 36.3995 167.335 36.6422 167.075C36.8848 166.806 37.2835 166.615 37.8382 166.503C38.3928 166.381 39.1642 166.321 40.1522 166.321H40.4382V165.892C40.4382 165.363 40.3298 164.982 40.1132 164.748C39.8965 164.505 39.5455 164.384 39.0602 164.384C38.3322 164.384 37.6085 164.609 36.8892 165.06L36.5382 164.293C36.8675 164.059 37.2618 163.872 37.7212 163.734C38.1892 163.586 38.6398 163.513 39.0732 163.513ZM38.6572 169.259C39.1772 169.259 39.6018 169.085 39.9312 168.739C40.2692 168.383 40.4382 167.928 40.4382 167.374V166.997H40.2042C39.4415 166.997 38.8608 167.031 38.4622 167.101C38.0635 167.161 37.7775 167.27 37.6042 167.426C37.4395 167.573 37.3572 167.794 37.3572 168.089C37.3572 168.427 37.4785 168.708 37.7212 168.934C37.9725 169.15 38.2845 169.259 38.6572 169.259ZM46.0707 170.091C45.4467 170.091 44.9051 169.956 44.4457 169.688C43.9864 169.419 43.6311 169.042 43.3797 168.557C43.1371 168.063 43.0157 167.486 43.0157 166.828C43.0157 166.169 43.1414 165.593 43.3927 165.099C43.6527 164.596 44.0124 164.206 44.4717 163.929C44.9397 163.651 45.4857 163.513 46.1097 163.513C46.5344 163.513 46.9504 163.591 47.3577 163.747C47.7651 163.894 48.0944 164.093 48.3457 164.345L47.9947 165.125C47.3967 164.639 46.7901 164.397 46.1747 164.397C45.5247 164.397 45.0177 164.609 44.6537 165.034C44.2897 165.458 44.1077 166.056 44.1077 166.828C44.1077 167.59 44.2897 168.18 44.6537 168.596C45.0177 169.012 45.5247 169.22 46.1747 169.22C46.7901 169.22 47.3967 168.977 47.9947 168.492L48.3457 169.272C48.0771 169.523 47.7391 169.722 47.3317 169.87C46.9244 170.017 46.5041 170.091 46.0707 170.091ZM49.6134 163.669H50.6664V170H49.6134V163.669ZM50.7834 160.926V162.109H49.5094V160.926H50.7834ZM55.8199 163.513C57.3366 163.513 58.0949 164.349 58.0949 166.022V170H57.0419V166.087C57.0419 165.497 56.9249 165.068 56.6909 164.8C56.4656 164.531 56.1016 164.397 55.5989 164.397C55.0182 164.397 54.5546 164.574 54.2079 164.93C53.8612 165.285 53.6879 165.766 53.6879 166.373V170H52.6349V163.669H53.6749V164.709C53.8829 164.319 54.1732 164.024 54.5459 163.825C54.9186 163.617 55.3432 163.513 55.8199 163.513ZM65.6916 163.669V169.571C65.6916 170.515 65.4489 171.226 64.9636 171.703C64.4783 172.188 63.7589 172.431 62.8056 172.431C61.6963 172.431 60.7646 172.145 60.0106 171.573L60.3616 170.793C60.7863 171.07 61.1849 171.269 61.5576 171.391C61.9303 171.512 62.3463 171.573 62.8056 171.573C63.4123 171.573 63.8716 171.408 64.1836 171.079C64.4956 170.758 64.6516 170.286 64.6516 169.662V168.544C64.4696 168.951 64.1879 169.263 63.8066 169.48C63.4339 169.696 62.9919 169.805 62.4806 169.805C61.9259 169.805 61.4319 169.675 60.9986 169.415C60.5739 169.155 60.2403 168.786 59.9976 168.31C59.7636 167.833 59.6466 167.283 59.6466 166.659C59.6466 166.035 59.7636 165.484 59.9976 165.008C60.2403 164.531 60.5739 164.163 60.9986 163.903C61.4319 163.643 61.9259 163.513 62.4806 163.513C62.9833 163.513 63.4209 163.621 63.7936 163.838C64.1663 164.054 64.4479 164.362 64.6386 164.761V163.669H65.6916ZM62.6886 168.934C63.2953 168.934 63.7719 168.734 64.1186 168.336C64.4653 167.928 64.6386 167.369 64.6386 166.659C64.6386 165.957 64.4653 165.406 64.1186 165.008C63.7806 164.6 63.3039 164.397 62.6886 164.397C62.0733 164.397 61.5879 164.6 61.2326 165.008C60.8859 165.406 60.7126 165.957 60.7126 166.659C60.7126 167.369 60.8859 167.928 61.2326 168.336C61.5879 168.734 62.0733 168.934 62.6886 168.934ZM76.6083 160.835V170H75.5553V168.843C75.3647 169.241 75.083 169.549 74.7103 169.766C74.3463 169.982 73.9173 170.091 73.4233 170.091C72.8687 170.091 72.379 169.952 71.9543 169.675C71.5297 169.397 71.2003 169.012 70.9663 168.518C70.7323 168.015 70.6153 167.434 70.6153 166.776C70.6153 166.126 70.7323 165.554 70.9663 165.06C71.2003 164.566 71.5297 164.184 71.9543 163.916C72.379 163.647 72.8687 163.513 73.4233 163.513C73.9173 163.513 74.3463 163.621 74.7103 163.838C75.083 164.054 75.3647 164.362 75.5553 164.761V160.835H76.6083ZM73.6313 169.22C74.2467 169.22 74.719 169.012 75.0483 168.596C75.3863 168.171 75.5553 167.573 75.5553 166.802C75.5553 166.03 75.3863 165.437 75.0483 165.021C74.719 164.605 74.2467 164.397 73.6313 164.397C73.016 164.397 72.535 164.605 72.1883 165.021C71.8503 165.437 71.6813 166.022 71.6813 166.776C71.6813 167.547 71.8503 168.149 72.1883 168.583C72.535 169.007 73.016 169.22 73.6313 169.22ZM81.1847 170.091C80.5867 170.091 80.0581 169.956 79.5987 169.688C79.1481 169.419 78.7971 169.038 78.5457 168.544C78.3031 168.041 78.1817 167.46 78.1817 166.802C78.1817 166.143 78.3031 165.567 78.5457 165.073C78.7971 164.57 79.1481 164.184 79.5987 163.916C80.0581 163.647 80.5867 163.513 81.1847 163.513C81.7827 163.513 82.3114 163.647 82.7707 163.916C83.2301 164.184 83.5811 164.57 83.8237 165.073C84.0751 165.567 84.2007 166.143 84.2007 166.802C84.2007 167.46 84.0751 168.041 83.8237 168.544C83.5811 169.038 83.2301 169.419 82.7707 169.688C82.3114 169.956 81.7827 170.091 81.1847 170.091ZM81.1847 169.22C81.8087 169.22 82.2854 169.016 82.6147 168.609C82.9527 168.193 83.1217 167.59 83.1217 166.802C83.1217 166.03 82.9527 165.437 82.6147 165.021C82.2767 164.596 81.8001 164.384 81.1847 164.384C80.5694 164.384 80.0927 164.596 79.7547 165.021C79.4167 165.437 79.2477 166.03 79.2477 166.802C79.2477 167.582 79.4124 168.18 79.7417 168.596C80.0797 169.012 80.5607 169.22 81.1847 169.22ZM88.3957 170.091C87.7977 170.091 87.269 169.956 86.8097 169.688C86.359 169.419 86.008 169.038 85.7567 168.544C85.514 168.041 85.3927 167.46 85.3927 166.802C85.3927 166.143 85.514 165.567 85.7567 165.073C86.008 164.57 86.359 164.184 86.8097 163.916C87.269 163.647 87.7977 163.513 88.3957 163.513C88.9937 163.513 89.5223 163.647 89.9817 163.916C90.441 164.184 90.792 164.57 91.0347 165.073C91.286 165.567 91.4117 166.143 91.4117 166.802C91.4117 167.46 91.286 168.041 91.0347 168.544C90.792 169.038 90.441 169.419 89.9817 169.688C89.5223 169.956 88.9937 170.091 88.3957 170.091ZM88.3957 169.22C89.0197 169.22 89.4963 169.016 89.8257 168.609C90.1637 168.193 90.3327 167.59 90.3327 166.802C90.3327 166.03 90.1637 165.437 89.8257 165.021C89.4877 164.596 89.011 164.384 88.3957 164.384C87.7803 164.384 87.3037 164.596 86.9657 165.021C86.6277 165.437 86.4587 166.03 86.4587 166.802C86.4587 167.582 86.6233 168.18 86.9527 168.596C87.2907 169.012 87.7717 169.22 88.3957 169.22ZM96.5686 164.423L95.8796 164.488C95.2296 164.548 94.7573 164.752 94.4626 165.099C94.1766 165.445 94.0336 165.874 94.0336 166.386V170H92.9806V163.669H94.0076V164.774C94.3629 164.037 95.0606 163.625 96.1006 163.539L96.4776 163.513L96.5686 164.423ZM99.6451 170.091C98.5791 170.091 97.7341 169.818 97.1101 169.272L97.4611 168.492C97.7991 168.76 98.1415 168.955 98.4881 169.077C98.8435 169.189 99.2421 169.246 99.6841 169.246C100.152 169.246 100.507 169.168 100.75 169.012C101.001 168.847 101.127 168.613 101.127 168.31C101.127 168.058 101.045 167.859 100.88 167.712C100.715 167.564 100.442 167.447 100.061 167.361L98.9951 167.114C98.4578 166.992 98.0461 166.784 97.7601 166.49C97.4741 166.195 97.3311 165.831 97.3311 165.398C97.3311 164.834 97.5521 164.379 97.9941 164.033C98.4361 163.686 99.0255 163.513 99.7621 163.513C100.204 163.513 100.624 163.586 101.023 163.734C101.422 163.872 101.755 164.076 102.024 164.345L101.673 165.112C101.092 164.618 100.455 164.371 99.7621 164.371C99.3201 164.371 98.9735 164.457 98.7221 164.631C98.4795 164.795 98.3581 165.029 98.3581 165.333C98.3581 165.584 98.4318 165.788 98.5791 165.944C98.7351 166.091 98.9821 166.204 99.3201 166.282L100.399 166.542C100.988 166.68 101.426 166.893 101.712 167.179C101.998 167.456 102.141 167.82 102.141 168.271C102.141 168.825 101.916 169.267 101.465 169.597C101.023 169.926 100.416 170.091 99.6451 170.091Z" fill="#959595"/>
</svg>
